{
    "asset" : {
        "generator" : "Khronos glTF Blender I/O v1.8.19",
        "version" : "2.0"
    },
    "scene" : 0,
    "scenes" : [
        {
            "name" : "Scene",
            "nodes" : [
                0
            ]
        }
    ],
    "nodes" : [
        {
            "mesh" : 0,
            "name" : "tronco",
            "translation" : [
                -2.611729860305786,
                6.249133110046387,
                0
            ]
        }
    ],
    "animations" : [
        {
            "channels" : [
                {
                    "sampler" : 0,
                    "target" : {
                        "node" : 0,
                        "path" : "translation"
                    }
                },
                {
                    "sampler" : 1,
                    "target" : {
                        "node" : 0,
                        "path" : "rotation"
                    }
                },
                {
                    "sampler" : 2,
                    "target" : {
                        "node" : 0,
                        "path" : "scale"
                    }
                }
            ],
            "name" : "troncoAction",
            "samplers" : [
                {
                    "input" : 24,
                    "interpolation" : "STEP",
                    "output" : 25
                },
                {
                    "input" : 24,
                    "interpolation" : "STEP",
                    "output" : 26
                },
                {
                    "input" : 24,
                    "interpolation" : "STEP",
                    "output" : 27
                }
            ]
        }
    ],
    "materials" : [
        {
            "doubleSided" : true,
            "name" : "Material.001",
            "pbrMetallicRoughness" : {
                "baseColorFactor" : [
                    0.2738308310508728,
                    0.1303751915693283,
                    0.08562198281288147,
                    1
                ],
                "metallicFactor" : 0,
                "roughnessFactor" : 0.739130437374115
            }
        },
        {
            "doubleSided" : true,
            "name" : "Material",
            "pbrMetallicRoughness" : {
                "baseColorFactor" : [
                    0.12372604757547379,
                    0.8000000715255737,
                    0.09705004841089249,
                    1
                ],
                "metallicFactor" : 0,
                "roughnessFactor" : 0.4000000059604645
            }
        },
        {
            "doubleSided" : true,
            "name" : "Material.002",
            "pbrMetallicRoughness" : {
                "baseColorFactor" : [
                    0.062286559492349625,
                    0.28829607367515564,
                    0.051639966666698456,
                    1
                ],
                "metallicFactor" : 0,
                "roughnessFactor" : 0.5
            }
        },
        {
            "doubleSided" : true,
            "name" : "Material.003",
            "pbrMetallicRoughness" : {
                "baseColorFactor" : [
                    0.060719188302755356,
                    0.03769385442137718,
                    0.03058827668428421,
                    1
                ],
                "metallicFactor" : 0,
                "roughnessFactor" : 0.5
            }
        },
        {
            "doubleSided" : true,
            "name" : "Material.004",
            "pbrMetallicRoughness" : {
                "baseColorFactor" : [
                    0.02090630494058132,
                    0.2810095548629761,
                    0.03213817998766899,
                    1
                ],
                "metallicFactor" : 0,
                "roughnessFactor" : 0.5
            }
        },
        {
            "doubleSided" : true,
            "name" : "Material.005",
            "pbrMetallicRoughness" : {
                "baseColorFactor" : [
                    0.030181769281625748,
                    0.4385433495044708,
                    0.04730641841888428,
                    1
                ],
                "metallicFactor" : 0,
                "roughnessFactor" : 0.5
            }
        }
    ],
    "meshes" : [
        {
            "name" : "Cube",
            "primitives" : [
                {
                    "attributes" : {
                        "POSITION" : 0,
                        "NORMAL" : 1,
                        "TEXCOORD_0" : 2
                    },
                    "indices" : 3,
                    "material" : 0
                },
                {
                    "attributes" : {
                        "POSITION" : 4,
                        "NORMAL" : 5,
                        "TEXCOORD_0" : 6
                    },
                    "indices" : 7,
                    "material" : 1
                },
                {
                    "attributes" : {
                        "POSITION" : 8,
                        "NORMAL" : 9,
                        "TEXCOORD_0" : 10
                    },
                    "indices" : 11,
                    "material" : 2
                },
                {
                    "attributes" : {
                        "POSITION" : 12,
                        "NORMAL" : 13,
                        "TEXCOORD_0" : 14
                    },
                    "indices" : 15,
                    "material" : 3
                },
                {
                    "attributes" : {
                        "POSITION" : 16,
                        "NORMAL" : 17,
                        "TEXCOORD_0" : 18
                    },
                    "indices" : 19,
                    "material" : 4
                },
                {
                    "attributes" : {
                        "POSITION" : 20,
                        "NORMAL" : 21,
                        "TEXCOORD_0" : 22
                    },
                    "indices" : 23,
                    "material" : 5
                }
            ]
        }
    ],
    "accessors" : [
        {
            "bufferView" : 0,
            "componentType" : 5126,
            "count" : 6425,
            "max" : [
                5.0908331871032715,
                8.306136131286621,
                7.502427101135254
            ],
            "min" : [
                -8.87270736694336,
                -1.446418285369873,
                -7.564494609832764
            ],
            "type" : "VEC3"
        },
        {
            "bufferView" : 1,
            "componentType" : 5126,
            "count" : 6425,
            "type" : "VEC3"
        },
        {
            "bufferView" : 2,
            "componentType" : 5126,
            "count" : 6425,
            "type" : "VEC2"
        },
        {
            "bufferView" : 3,
            "componentType" : 5123,
            "count" : 31899,
            "type" : "SCALAR"
        },
        {
            "bufferView" : 4,
            "componentType" : 5126,
            "count" : 392,
            "max" : [
                16.03527069091797,
                -0.6971461176872253,
                16.03527069091797
            ],
            "min" : [
                -16.03527069091797,
                -4.058891296386719,
                -16.03527069091797
            ],
            "type" : "VEC3"
        },
        {
            "bufferView" : 5,
            "componentType" : 5126,
            "count" : 392,
            "type" : "VEC3"
        },
        {
            "bufferView" : 6,
            "componentType" : 5126,
            "count" : 392,
            "type" : "VEC2"
        },
        {
            "bufferView" : 7,
            "componentType" : 5123,
            "count" : 2028,
            "type" : "SCALAR"
        },
        {
            "bufferView" : 8,
            "componentType" : 5126,
            "count" : 201,
            "max" : [
                9.847286224365234,
                19.615602493286133,
                10.602871894836426
            ],
            "min" : [
                -7.574653148651123,
                11.124418258666992,
                -7.977153778076172
            ],
            "type" : "VEC3"
        },
        {
            "bufferView" : 9,
            "componentType" : 5126,
            "count" : 201,
            "type" : "VEC3"
        },
        {
            "bufferView" : 10,
            "componentType" : 5126,
            "count" : 201,
            "type" : "VEC2"
        },
        {
            "bufferView" : 11,
            "componentType" : 5123,
            "count" : 570,
            "type" : "SCALAR"
        },
        {
            "bufferView" : 12,
            "componentType" : 5126,
            "count" : 112,
            "max" : [
                15.222686767578125,
                -4.058891296386719,
                15.222686767578125
            ],
            "min" : [
                -15.222686767578125,
                -5.985898494720459,
                -15.222686767578125
            ],
            "type" : "VEC3"
        },
        {
            "bufferView" : 13,
            "componentType" : 5126,
            "count" : 112,
            "type" : "VEC3"
        },
        {
            "bufferView" : 14,
            "componentType" : 5126,
            "count" : 112,
            "type" : "VEC2"
        },
        {
            "bufferView" : 15,
            "componentType" : 5123,
            "count" : 498,
            "type" : "SCALAR"
        },
        {
            "bufferView" : 16,
            "componentType" : 5126,
            "count" : 764,
            "max" : [
                10.793729782104492,
                13.401338577270508,
                19.248550415039062
            ],
            "min" : [
                -10.915611267089844,
                1.606781005859375,
                -15.443431854248047
            ],
            "type" : "VEC3"
        },
        {
            "bufferView" : 17,
            "componentType" : 5126,
            "count" : 764,
            "type" : "VEC3"
        },
        {
            "bufferView" : 18,
            "componentType" : 5126,
            "count" : 764,
            "type" : "VEC2"
        },
        {
            "bufferView" : 19,
            "componentType" : 5123,
            "count" : 2421,
            "type" : "SCALAR"
        },
        {
            "bufferView" : 20,
            "componentType" : 5126,
            "count" : 695,
            "max" : [
                16.914472579956055,
                20.556419372558594,
                12.154911041259766
            ],
            "min" : [
                -16.05179786682129,
                0.8067827224731445,
                -11.999452590942383
            ],
            "type" : "VEC3"
        },
        {
            "bufferView" : 21,
            "componentType" : 5126,
            "count" : 695,
            "type" : "VEC3"
        },
        {
            "bufferView" : 22,
            "componentType" : 5126,
            "count" : 695,
            "type" : "VEC2"
        },
        {
            "bufferView" : 23,
            "componentType" : 5123,
            "count" : 2193,
            "type" : "SCALAR"
        },
        {
            "bufferView" : 24,
            "componentType" : 5126,
            "count" : 1,
            "max" : [
                10.416666666666666
            ],
            "min" : [
                10.416666666666666
            ],
            "type" : "SCALAR"
        },
        {
            "bufferView" : 25,
            "componentType" : 5126,
            "count" : 1,
            "type" : "VEC3"
        },
        {
            "bufferView" : 26,
            "componentType" : 5126,
            "count" : 1,
            "type" : "VEC4"
        },
        {
            "bufferView" : 27,
            "componentType" : 5126,
            "count" : 1,
            "type" : "VEC3"
        }
    ],
    "bufferViews" : [
        {
            "buffer" : 0,
            "byteLength" : 77100,
            "byteOffset" : 0
        },
        {
            "buffer" : 0,
            "byteLength" : 77100,
            "byteOffset" : 77100
        },
        {
            "buffer" : 0,
            "byteLength" : 51400,
            "byteOffset" : 154200
        },
        {
            "buffer" : 0,
            "byteLength" : 63798,
            "byteOffset" : 205600
        },
        {
            "buffer" : 0,
            "byteLength" : 4704,
            "byteOffset" : 269400
        },
        {
            "buffer" : 0,
            "byteLength" : 4704,
            "byteOffset" : 274104
        },
        {
            "buffer" : 0,
            "byteLength" : 3136,
            "byteOffset" : 278808
        },
        {
            "buffer" : 0,
            "byteLength" : 4056,
            "byteOffset" : 281944
        },
        {
            "buffer" : 0,
            "byteLength" : 2412,
            "byteOffset" : 286000
        },
        {
            "buffer" : 0,
            "byteLength" : 2412,
            "byteOffset" : 288412
        },
        {
            "buffer" : 0,
            "byteLength" : 1608,
            "byteOffset" : 290824
        },
        {
            "buffer" : 0,
            "byteLength" : 1140,
            "byteOffset" : 292432
        },
        {
            "buffer" : 0,
            "byteLength" : 1344,
            "byteOffset" : 293572
        },
        {
            "buffer" : 0,
            "byteLength" : 1344,
            "byteOffset" : 294916
        },
        {
            "buffer" : 0,
            "byteLength" : 896,
            "byteOffset" : 296260
        },
        {
            "buffer" : 0,
            "byteLength" : 996,
            "byteOffset" : 297156
        },
        {
            "buffer" : 0,
            "byteLength" : 9168,
            "byteOffset" : 298152
        },
        {
            "buffer" : 0,
            "byteLength" : 9168,
            "byteOffset" : 307320
        },
        {
            "buffer" : 0,
            "byteLength" : 6112,
            "byteOffset" : 316488
        },
        {
            "buffer" : 0,
            "byteLength" : 4842,
            "byteOffset" : 322600
        },
        {
            "buffer" : 0,
            "byteLength" : 8340,
            "byteOffset" : 327444
        },
        {
            "buffer" : 0,
            "byteLength" : 8340,
            "byteOffset" : 335784
        },
        {
            "buffer" : 0,
            "byteLength" : 5560,
            "byteOffset" : 344124
        },
        {
            "buffer" : 0,
            "byteLength" : 4386,
            "byteOffset" : 349684
        },
        {
            "buffer" : 0,
            "byteLength" : 4,
            "byteOffset" : 354072
        },
        {
            "buffer" : 0,
            "byteLength" : 12,
            "byteOffset" : 354076
        },
        {
            "buffer" : 0,
            "byteLength" : 16,
            "byteOffset" : 354088
        },
        {
            "buffer" : 0,
            "byteLength" : 12,
            "byteOffset" : 354104
        }
    ],
    "buffers" : [
        {
            "byteLength" : 354116,
            "uri" : "data:application/octet-stream;base64,"
        }
    ]
}
