<svg id="Capa_1" data-name="Capa 1" xmlns="http://www.w3.org/2000/svg" width="736" height="753.5" viewBox="0 0 869 781"><defs><style>.cls-1{fill:#231f20;}</style></defs><path class="cls-1" d="M655.41,153.64c-3.84-7.1-9.43-11.15-17.08-12.4C624.6,139,612.07,143.13,600,153.88c-2.15,1.91-4.28,3.93-6.34,5.89-10.27,9.75-20,18.95-35.34,20h0v-.63a3.32,3.32,0,0,1-1,.32V180c-5,.88-10.09,5.46-14.21,9.18l-.6.55A73.09,73.09,0,0,0,535,198a77,77,0,0,1-6.88,7.76,105,105,0,0,1-13.7,10.29l-2.18,1.47c-2.59,1.75-5.36,3.39-8,5-4.87,2.89-9.9,5.88-14.15,9.69C479.18,242,468.65,248,456.92,251c-7.14,1.83-11.22,4.26-13.24,7.87s-2,8.62.29,16c6.78,22.08,11.87,45.87,16.51,77.12,5.27,35.62,6.72,66.17,4.43,94.93a3.32,3.32,0,0,1-.29.6l.22.37q-.52,6.44-1.31,12.78c-2.49,20.21-6,43.51-15.89,64.37-3.85,8.1-8,16.21-12.06,24q-2.44,4.72-4.86,9.47l-.43.33.1.13a67.66,67.66,0,0,1-9.34,8.44c.17-.37.33-.75.49-1.11a75.67,75.67,0,0,1,3.55-7.36C442.54,528.68,452.32,493.71,455,452c2.3-35.73-.58-73.48-9.33-122.4C434,264.35,410.22,217.92,370.86,183.5l-2.12-1.86a1.5,1.5,0,0,1,0-.22v-.07l-.8-.42c-11.1-9.67-24.49-21-39-28.66-8.91-4.72-18-6.73-26.69-6l-.36-.19h0a2.78,2.78,0,0,1-.34.26,40,40,0,0,0-8.36,1.76c-11.85,3.84-21.53,12.86-28,26.08a159.06,159.06,0,0,0-12.95,38.68c-5,25.38-15.2,41.75-33,53.08-.77.49-1.51,1-2.24,1.53l-1.07.53c0,.09,0,.19,0,.28-10.68,8.31-16.19,21-16.35,37.92,0,3.45,0,7,0,10.65,0,1.61,0,3.27,0,5-2.74-1.29-5.34-2.57-7.88-3.81a175.53,175.53,0,0,0-16.8-7.56c-14-5.14-26.45-3.72-36,3.72l-.29-.21h0a5.15,5.15,0,0,1-.16.56h0a35.87,35.87,0,0,0-3.34,3.1l-.24-.8a4.93,4.93,0,0,1-.57-.07,4.52,4.52,0,0,1-.2.9l.25.82a46.87,46.87,0,0,0-7.66,12,76.64,76.64,0,0,0-6.37,26.34A91.31,91.31,0,0,0,133,409.47c8,13.72,16.35,27.57,24.4,41q5.91,9.82,11.8,19.66C181.24,490.22,200,501.46,215,509c5.89,3,11.94,6.06,18.26,9.36v.06l.22.05c11.26,5.87,23.41,12.37,37.11,19.86,11,6,22,12.37,32.72,18.51q6.71,3.85,13.37,7.68c-2.46.79-5,1.54-7.4,2.26-6.76,2-13.75,4.09-20.09,7.28-4.78,2.42-9.64,8-12.09,13.92-1.62,3.9-1.43,7.62.52,10.48s5.92,4.68,10.47,4.58a28.9,28.9,0,0,0,4.53-.48l.47.31.31-.47c2.11-.42,4.21-1,6.27-1.56l.3-.08c15.83-4.38,30.83-5,45.85-1.78,1.14.24,2.3.42,3.47.57l.39.41,0,0,0,0,.2-.21.64.32.18-.36a110.4,110.4,0,0,0,12.73.25c2.49-.05,5.06-.1,7.56-.05s4.8,0,7.14,0h2.06l0,0,0,0h.36c.49,15.49-.39,16.77-13.4,21.78l-.6.23c-6.34,2.43-12.9,4.93-14.11,12.85-.22,1.44-.4,2.89-.58,4.34h-.23l.05,1.49c-.59,5.09-1,10.21-1.36,15.22-.23,3-.46,6-.73,9l0,.5.48.1,1.71.36,1.34.27.13-.53.09-.35h.2l0-.73c.46-1.88,1-3.78,1.45-5.62a97.54,97.54,0,0,0,3.26-15.43c.8-8,4.15-12.51,10.85-14.56,10-3.06,15.79-9.32,17.56-19.16a6.67,6.67,0,0,1,1.61-2.51c.32-.38.67-.82,1.07-1.32-.3,9.89-.82,18.64-2.54,26.6l-.58.11a4.68,4.68,0,0,1,0,1l.33-.06a53,53,0,0,1-9.87,21.26l-1.26,1.61,1.91-.75c8.43-3.32,13.27-9.72,14.78-19.56.19-1.23.37-2.46.54-3.7l.5-.09a3.64,3.64,0,0,1,.54-1.1l-.89.17c.63-4.59,1.16-9.19,1.68-13.69.29-2.53.58-5.05.89-7.58l2.25-.45h.05c.47.64,1,1.27,1.53,1.88,1.3,1.51,2.52,2.93,2.77,4.47a83.18,83.18,0,0,1,1.11,13.46l-.94.18a4.17,4.17,0,0,1-.26,1l1.19-.22c-.23,11.84-3.65,21.49-10.41,29.44l-7.39,7a57.18,57.18,0,0,0-5.8,5.53l-3,2.83.13.14-.7.71-.45.45.49.39,1.32,1,1.17.91.34-.24c11.38-8,23.09-17.35,28.34-31l.73-.7-.34-.36a46.13,46.13,0,0,0,1.71-23.38,22.27,22.27,0,0,1,.31-6.7c.13-.88.26-1.79.36-2.72,4.35,2.15,9.17,6.85,13.27,12.46,0,.14.05.27.07.41l.2,0a59.38,59.38,0,0,1,7.91,14.88l.95,4.42.25-.06a.64.64,0,0,0,0,.07c-1.77,1.58-3.64,3.13-5.44,4.64-7.83,6.54-15.93,13.3-19.54,23.82l-.09.24.13.22c.16.29.29.55.39.77a2.31,2.31,0,0,0,.77,1.05,1.75,1.75,0,0,0,1.89-.25c2.24-2.3,4.48-4.69,6.64-7,4.46-4.75,9.07-9.66,13.93-14.1,9.55-8.7,10.11-13.37,2.86-23.75-2.77-4-5.64-7.78-9-12.18-1.43-1.89-2.93-3.87-4.52-6,4.93-1.24,9.32-3.49,13.58-5.67,7.59-3.89,14.76-7.56,23.79-4.92,3.29,5-.24,7.48-4.7,10.58l-1.66,1.18-1.43,1,1.76,0c10.61-.12,12.17-1.31,12.83-9.77l0-.39a64.66,64.66,0,0,1,1.52-11.13c1.67-6.38,3.5-12.61,5.63-19.83.54-1.85,1.11-3.76,1.69-5.74l1.09-2.13.25-.24-.08-.09.66-1.29c30.48-19.08,59.45-26,88.53-21.12l2.13.36-1.69-1.35a23.55,23.55,0,0,0-10.86-5,78.29,78.29,0,0,0-15.35-1.09l-.66-.51a3.42,3.42,0,0,1-.57.07h0a3.48,3.48,0,0,1-1.16-.19l.55.42-.81.32c-21.9,1.3-41.62,11.27-60.82,21l-5.8,2.92c12.08-14.46,28.95-20.11,45.3-25.58,3.42-1.15,7-2.33,10.41-3.58l3.8-1.38-4,.3c-13.36,1-25.14,3.69-35.52,8.21l.14-.27a3.6,3.6,0,0,1-1.31.41l-.26.5a81.35,81.35,0,0,0-21.46,14.21c-3.53,3.25-6.21,4.86-11.05,4.72-5.15-.2-12.27,1.68-16,5.64a16.94,16.94,0,0,1-7.88,5l-3.78.7a56.7,56.7,0,0,1-7.31.1,85,85,0,0,0,11.77-6.54l.08.14.48-.31c3.48-2.23,7.13-4.37,10.66-6.44,7.74-4.53,15.74-9.22,22.52-15.18a390.06,390.06,0,0,0,76.12-91.07l1.2-2c7.91-13,16.08-26.52,23.83-40q7.08-12.31,14.2-24.61c17.58-30.45,35.76-61.93,53.12-93.21,17.15-30.87,27.11-63.11,29.61-95.82C664.89,179.81,662.09,166,655.41,153.64ZM352.32,664.8l-.27-.06-1.22-.25c.25-2.86.47-5.75.68-8.56q.24-3.13.5-6.33l.42,14.76C352.4,664.51,352.36,664.65,352.32,664.8Zm206.1-483.86c15.76-1.13,26.07-10.9,36-20.36,2-2,4.17-4,6.31-5.87,11.78-10.51,24-14.55,37.39-12.37,7.39,1.21,12.56,5,16.28,11.83a70.19,70.19,0,0,1,8.29,29.25l-97.58,47.23a8.34,8.34,0,0,0-6.79-4.25L558.3,181Zm4.79,118.68h0a5.63,5.63,0,0,1,.57,2.32h0A5.63,5.63,0,0,0,563.21,299.62Zm.51,3.3a5.46,5.46,0,0,1-.2.91h0a5.46,5.46,0,0,0,.2-.91Zm-5.1-8.37L558.39,243a8.35,8.35,0,0,0,7.69-6.89l84.16,9.56-85.87,52.07A7.56,7.56,0,0,0,558.62,294.55Zm4.08,4.23h0a5.62,5.62,0,0,0-3.45-2.19A5.62,5.62,0,0,1,562.7,298.78Zm-4.15-70.41a6.37,6.37,0,0,1,4.83,3.13h0A6.37,6.37,0,0,0,558.55,228.37Zm5.26,4h0a6.78,6.78,0,0,1,.42,1.75A6.78,6.78,0,0,0,563.81,232.38Zm-.68,72.35h0a5.6,5.6,0,0,1-5,3A5.6,5.6,0,0,0,563.13,304.73Zm-5.48-10.18a7.58,7.58,0,0,0-7,7.13l-58.25.49a5.79,5.79,0,0,0-1.6-2.6l61.44-58.76a8.27,8.27,0,0,0,5.22,2.22Zm-5.08,7.11h0a5.61,5.61,0,0,1,5-5.15A5.61,5.61,0,0,0,552.57,301.66Zm3.69,5.73h0a5.64,5.64,0,0,1-3.69-4.75h0A5.64,5.64,0,0,0,556.26,307.39Zm-43.38-88.92,2.18-1.47a106.91,106.91,0,0,0,13.84-10.4,78.84,78.84,0,0,0,7-7.87,72.12,72.12,0,0,1,7.38-8.22l.6-.55c4-3.58,8.82-8,13.46-8.87l0,45.31a8.33,8.33,0,0,0-7.44,5.77l-41.75-10.72C509.76,220.49,511.35,219.5,512.88,218.47ZM457.2,252c11.91-3,22.59-9.09,33.61-19,4.17-3.74,9.16-6.7,14-9.56l2.21-1.32,42.69,11a7.91,7.91,0,0,0-.16,1.55,8.31,8.31,0,0,0,2,5.44L490,299a5.78,5.78,0,0,0-3.2-1,5.65,5.65,0,0,0-2.94.79l-37.67-41.42C448.35,255.1,451.87,253.41,457.2,252ZM445,274.48c-2.17-7.05-2.29-11.7-.39-15.1a11.2,11.2,0,0,1,.87-1.29L483,299.33a5.81,5.81,0,0,0-2.11,4.45,6.25,6.25,0,0,0,.09,1l-25.55,11.42A426.32,426.32,0,0,0,445,274.48Zm-8.47,275.06c4.05-7.85,8.23-16,12.08-24.08a133.47,133.47,0,0,0,6.63-17l38.92,1.88-61.42,46.6Q434.67,553.24,436.57,549.54Zm-6.33,11.08,1.13,1.75a71.55,71.55,0,0,1-8.74,5.07A68.79,68.79,0,0,0,430.24,560.62Zm-65.75,19.73-22.55-29.59,80.12,55.34-55.89-22.65a2.2,2.2,0,0,0,.26-1A2.12,2.12,0,0,0,364.49,580.35ZM341,548.93l.14-.25,76.33,21.08.17.08L426.77,608l-.54-.22ZM405,502.2a3.29,3.29,0,0,1,1.93,2.94h0A3.26,3.26,0,0,0,405,502.2Zm1.77,3.91a3.23,3.23,0,0,1-1.85,2.07,3.23,3.23,0,0,0,1.85-2.07Zm5,60.91-70.25-19.4a3.68,3.68,0,0,0,.06-.58,3.61,3.61,0,0,0-6.48-2.2l-60.75-42a7.57,7.57,0,0,0,1.06-3.11l122.73,5.94a5.54,5.54,0,0,0,5.37,5l13.81,57.75L275.65,500.56l-.48,1Zm12.37-8.65a75.58,75.58,0,0,0-3.6,7.47c-.41.94-.86,1.93-1.31,2.94l-.1.07,0,.06s0,.09-.07.14l-.52-.15-13.94-58.3a5.52,5.52,0,0,0,4.42-4.38L444.9,508A211.69,211.69,0,0,1,424.12,558.37Zm21-51.38-36-1.74s0,0,0-.05a5.52,5.52,0,0,0-11-.48l-122.68-5.94a7.73,7.73,0,0,0-4.4-6.85l22.71-56.74a8.27,8.27,0,0,0,10.16-4.34l145.26,58.32h0a4.31,4.31,0,0,1,.23-.82C448.2,494.74,446.78,500.94,445.16,507ZM273,501.17a4.09,4.09,0,0,1-.3.59h0A4.09,4.09,0,0,0,273,501.17Zm-12.37-5.36-78.1-28.42a5.2,5.2,0,0,0,0-2.67l106-34.39a8.41,8.41,0,0,0,4.22,4.5l-22.72,56.73a7.74,7.74,0,0,0-9.48,4.25Zm5.17,8.53h0a5.75,5.75,0,0,1-3.46-3.33h0A5.75,5.75,0,0,0,265.82,504.34Zm-3.33-7.86h0a5.81,5.81,0,0,1,3-2.89A5.81,5.81,0,0,0,262.49,496.48Zm-.42,3.6h0a6.06,6.06,0,0,1-.12-1.21,5.5,5.5,0,0,1,.21-1.47h0a5.5,5.5,0,0,0-.21,1.47A6.06,6.06,0,0,0,262.07,500.08Zm-1.87.56-22.88,6.83a3.25,3.25,0,0,0-4.86-.5L181.9,468.89a6.55,6.55,0,0,0,.32-.58l78.09,28.42a7.71,7.71,0,0,0-.11,3.91Zm-79.47-35.31h0a4.48,4.48,0,0,1,.06.65,3.47,3.47,0,0,1-.08.73h0a3.47,3.47,0,0,0,.08-.73A4.48,4.48,0,0,0,180.73,465.33Zm-3.51-4.92a5,5,0,0,0-.67,0l-2.86-13.87a4,4,0,0,0,2.45-4.86l112.05-13c0,.22.09.44.14.65l-106,34.4A5.55,5.55,0,0,0,177.22,460.41Zm3.14,7.22,0,.07h0l0-.07Zm91.81,34.94h0a5.75,5.75,0,0,1-3.89,2.07A5.75,5.75,0,0,0,272.17,502.57ZM277,244.87l117.07,91.39a8.37,8.37,0,0,0,.14,9.76L337,393.23l-34.47,28.41a8.28,8.28,0,0,0-6.05-2.67c-.21,0-.42,0-.62,0l-10.87-84.1-11.32-87.6A6.75,6.75,0,0,0,277,244.87Zm-3.72-.1a4.1,4.1,0,0,0,1.76-1.43h0A4.1,4.1,0,0,1,273.3,244.77Zm2.23-2.31a4.08,4.08,0,0,0,.29-1.49,4.08,4.08,0,0,1-.29,1.49ZM453.89,451.94a304.1,304.1,0,0,1-4.46,36.28L304.28,429.94a8.59,8.59,0,0,0,.44-2.6,8.33,8.33,0,0,0-1.62-4.95l91.75-75.61a8.38,8.38,0,0,0,10.1,1.73l49.68,82.38C454.58,438,454.33,445,453.89,451.94Zm-9.32-122.13c6.89,38.51,10.13,70.08,10.07,99.2l-48.85-81a8.41,8.41,0,0,0,3.67-6.9,8.54,8.54,0,0,0-.55-3l34.17-15.28a4.34,4.34,0,0,1-.28-.95l-34.29,15.34a8.42,8.42,0,0,0-7.44-4.55l-.48,0L386,199.81C415.8,232.21,434.6,274.11,444.57,329.81ZM328.42,153.26c12.83,6.81,24.84,16.51,35.13,25.37l-9.41-5-50-26.38A47.58,47.58,0,0,1,328.42,153.26Zm-34.89-4.08a39.18,39.18,0,0,1,8.75-1.78l64.54,34.06,3.3,2.88a202.82,202.82,0,0,1,14.74,14.26l14.76,134.14a8.43,8.43,0,0,0-4.92,2.75l-39.7-31L277.54,244a6.58,6.58,0,0,0,.32-5.48L379,193.16a4,4,0,0,1-.49-.3,3.62,3.62,0,0,1-.42-.36L331.5,213.41l-54.07,24.26a6.65,6.65,0,0,0-4.69-3.28l-.06-70.17A43.41,43.41,0,0,1,293.53,149.18Zm-40.2,63.91a158.27,158.27,0,0,1,12.86-38.41,60.07,60.07,0,0,1,5.52-9.17l.05,68.79h-.07a6.63,6.63,0,0,0-6.22,9.06l-41.39,20.58C239.39,252.64,248.75,236.34,253.33,213.09Zm-52.65,93.13c.16-17.44,6.13-30.32,17.7-38.36l47.51-23.62a6.67,6.67,0,0,0,5.74,3.36,7,7,0,0,0,1-.09l22.18,171.61a8.12,8.12,0,0,0-3,1.24l-91.12-97.79c0-2,0-3.89,0-5.71C200.65,313.16,200.65,309.67,200.68,306.22Zm-26.19,5.33a177.75,177.75,0,0,1,16.69,7.51c2.73,1.34,5.54,2.72,8.52,4.11l91.2,97.88a8,8,0,0,0-1,1l-150-107.15C149.08,307.91,161,306.61,174.49,311.55Zm-35.39,4L289.34,422.87a8.29,8.29,0,0,0-1.28,4.38c0,.18,0,.35,0,.52l-112.32,13a4.1,4.1,0,0,0-3.56-2.13c-.15,0-.28,0-.42,0L135.51,319A37,37,0,0,1,139.1,315.55Zm19.27,134.3C150.32,436.46,142,422.62,134,408.91a90.16,90.16,0,0,1-12.52-52A75.58,75.58,0,0,1,127.73,331a45.81,45.81,0,0,1,7-11.16L170.82,438.9a4.1,4.1,0,0,0-2.75,3.84,4,4,0,0,0,.56,2.06l-8.07,8.71Zm11.8,19.67q-4.53-7.59-9.08-15.14l8.13-8.78a4,4,0,0,0,2.94,1.27,5.48,5.48,0,0,0,.57-.05l2.87,13.82a5.55,5.55,0,0,0-3.95,5.29,5.43,5.43,0,0,0,.84,2.95l-1.84,1.39C170.49,470,170.32,469.77,170.17,469.52Zm3.81-2a3.55,3.55,0,0,1-.38-1.59,3.49,3.49,0,0,1,.44-1.67,3.49,3.49,0,0,0-.44,1.67A3.55,3.55,0,0,0,174,467.53Zm59.3,49.6c-6.16-3.21-12.08-6.24-17.82-9.13-14.44-7.27-32.38-18-44.29-36.91l1.91-1.43a5.51,5.51,0,0,0,8.23,0l50.54,38.07a3.24,3.24,0,0,0,1.69,4.67Zm25.83,13.24-.09.43c-8.84-4.77-17-9.12-24.79-13.17l.28-5,.14,0a3.26,3.26,0,0,0,3.28-3.25,2.91,2.91,0,0,0-.17-1l22.72-6.79a7.79,7.79,0,0,0,4.85,4.68l-5.2,20.35-1,3.78Zm7.17-23.89a7.23,7.23,0,0,0,1.4.14,7.7,7.7,0,0,0,6.1-2.94l60.81,42a3.69,3.69,0,0,0-.24,1.16l-74.24-16.26Zm37.54,49.39c-10.68-6.14-21.72-12.5-32.74-18.52L261.19,532,334.49,548a3.61,3.61,0,0,0,3.44,2.61,3.69,3.69,0,0,0,2-.62l23.3,30.59a2.12,2.12,0,0,0-1,1.25L318.16,564l0,.1C313.36,561.37,308.59,558.62,303.82,555.87Zm-11.14,45.52a27.61,27.61,0,0,1-4.66.53c-4.22.1-7.68-1.4-9.53-4.1-1.73-2.53-1.87-5.87-.41-9.41,2.36-5.68,7-11,11.57-13.35,6.24-3.15,13.18-5.21,19.9-7.21,2.27-.67,4.59-1.38,6.9-2.11Zm57-3-30.56-32-.81.77,28.37,29.73L310,578.18l-.51,1L346.36,598l-.36-.06c-15.2-3.22-30.37-2.64-46.38,1.79l-.3.08c-1.68.46-3.38.93-5.08,1.31l23.91-35.87h0l44.11,17.89a2.09,2.09,0,0,0,.85,1.15Zm28.47.45c-2.33,0-4.73,0-7.11,0s-5.1,0-7.6.05A112,112,0,0,1,351,598.6l13.35-14a1.74,1.74,0,0,0,.45-.06l14.29,14.3Zm-19.81,38.86a25.48,25.48,0,0,0-1.17,5.66,97.57,97.57,0,0,1-3.22,15.25c-.16.61-.33,1.22-.49,1.84l-.56-19.76c0-.29.07-.58.1-.87l4.64-.86a4.17,4.17,0,0,1,.28-1.05l-4.78.89c.16-1.28.32-2.55.51-3.82,1.08-7.07,7-9.53,12.9-11.78l-8.76,14.16Zm31.9-25.24,1,19.23-3.25.61A127.56,127.56,0,0,0,390.22,612.44Zm.82,23.49c-1.33,8.63-5.32,14.49-12.16,17.84a54.48,54.48,0,0,0,8.9-20.46l3.74-.69C391.36,633.72,391.21,634.83,391,635.93Zm-12.53,41.58-.53-.41-.81-.62c.86-.87,1.71-1.76,2.54-2.63l.59-.63,5.75-5.46.09-.08a51.34,51.34,0,0,0,7.4-7l11.79-11.21C400,661.34,389.44,669.82,378.51,677.51Zm27.83-30.6-9,8.58c4.48-7.13,6.76-15.46,6.91-25.24l4.57-.86A42.81,42.81,0,0,1,406.34,646.91Zm1.8-23.48c.29,1.77.5,3.47.62,5.13l-.06-.14-4.28.8,4-12.58A22.38,22.38,0,0,0,408.14,623.43Zm25.08,8.83c6.95,10,6.47,13.92-2.71,22.29-4.89,4.46-9.51,9.39-14,14.15-2.16,2.3-4.39,4.68-6.62,7a.83.83,0,0,1-.54.06,2.58,2.58,0,0,1-.32-.57c-.08-.18-.18-.38-.3-.61,3.55-10.09,11.46-16.7,19.12-23.09,1.89-1.58,3.85-3.22,5.7-4.87l.23-.21-.05-.31a35.09,35.09,0,0,0-1.29-4.8l-3.07-14.34C430.71,628.73,432,630.48,433.22,632.26Zm-3.11,3.36a66.72,66.72,0,0,0-5.47-9.18l3.36-.63Zm-10.54-23.07-.84.19.52.69c1.77,2.39,3.44,4.59,5,6.69l3.55,4.73-3.82.71c-4.45-6-9.69-11.06-14.35-13.08l-.72-.31-.07.77v0l-.42-.14-4.27,13.44a91.13,91.13,0,0,0-1.08-10.45c-.3-1.85-1.68-3.46-3-5-.58-.68-1.19-1.39-1.68-2.09l-.21-.3-.76.15-2.64.54-.4.08-.05.4c-.33,2.66-.63,5.32-.94,8-.39,3.36-.79,6.77-1.23,10.2L390.89,604l-.36,0,.05-1.69-1.07,1.48c-.8,1.12-1.51,2-2.08,2.68a7.22,7.22,0,0,0-1.85,3c-1.69,9.38-7.18,15.37-16.78,18.29a17.16,17.16,0,0,0-5.53,2.75l5-8.06c13-5,14-7,13.47-23.16l0-.54h-1l-13.93-13.93L426.29,609l.66.45a1.59,1.59,0,0,1,.13-.13h0v0h.08l.66.27A43.27,43.27,0,0,1,419.57,612.55Zm51.35-38.35c-2.12,7.22-4,13.46-5.63,19.86a64.63,64.63,0,0,0-1.55,11.32l0,.4c-.56,7.06-1.27,8.45-9.92,8.69l.17-.12c4.42-3.07,9-6.25,4.88-12.29l-.11-.16-.19-.06c-.53-.16-1.05-.29-1.57-.41l14-27.3Zm1.51-5.12-16.26,31.76a3.07,3.07,0,0,1,.71.57c-8.76-2-15.77,1.58-23.16,5.36-1.77.91-3.56,1.82-5.4,2.67l0-.05,44.2-40.69C472.5,568.83,472.47,569,472.43,569.08ZM553.53,539a21.73,21.73,0,0,1,8.5,3.43,109,109,0,0,0-17.84-1.14l-4.4-3.39A77.17,77.17,0,0,1,553.53,539Zm-17.6-1c.76,0,1.53-.08,2.29-.1l4.42,3.39a113,113,0,0,0-24,3.41Zm-3.91.32L496.84,552l.11.28a173.66,173.66,0,0,0-20.35,10.76l3.31-6.46C496.46,548.29,513.5,540.31,532,538.36Zm-43.81,2a102.14,102.14,0,0,1,32-8.3l-6.2,2.09c-9.72,3.25-19.63,6.57-28.64,11.75Zm-48.28,24.37c3.45-3.67,10.36-5.47,15.12-5.29,5.72.17,8.75-2.15,11.85-5a80.28,80.28,0,0,1,19.87-13.41l-3,5.82a61.17,61.17,0,0,0-17.18,15.25l-.26.34h0L436,568.08A19.32,19.32,0,0,0,439.93,564.77Zm-13.7,6.12,0,.13,1.22-.23a22,22,0,0,0,4.24-.78l33.64-6.23-.2.25.71-.34.69-.13,0-.2.79-.39c2.7-1.34,5.38-2.7,8.07-4.06l3.06-1.54L475,564.09l-1.16.73-.18.11-.06.2c-.14.5-.29,1-.43,1.49L428,608.22,419,570.85h.08C421.64,570.93,424,571,426.23,570.89Zm38.69-30.3c-6.7,5.88-14.65,10.55-22.35,15.06-3.16,1.85-6.42,3.77-9.57,5.76l-.12-.15-.6.45c-.36-.56-.72-1.12-1.09-1.68l.41-.79,63.15-47.9A382.91,382.91,0,0,1,464.92,540.59Zm30.81-30.33-.52-.68-.18.13a.21.21,0,0,0,0-.06l.15-.24h0l-39.64-1.91q2.19-7.1,3.77-14.25l27.46,11,9.77,3.92-.06.15.29-.11a3.25,3.25,0,0,1,1.82-1.25,4.34,4.34,0,0,1-.12-1.79,6.88,6.88,0,0,0-1.57,2.09l-13.39-5.37-24-9.63c2.37-10.83,3.85-21.57,5.08-31.55q.69-5.6,1.18-11.29l33,54.69h0a3.72,3.72,0,0,1,.58-.93L466,447.79c2.38-29.08.95-60-4.39-96-1.87-12.63-3.82-24-5.93-34.61l25.6-11.45a5.83,5.83,0,0,0,5.48,3.94h.09l15.12,192.42h.13a4.56,4.56,0,0,1,.54,0c.08-.12.16-.24.25-.35h0a2.26,2.26,0,0,1,0-.37L487.8,309.56a5.85,5.85,0,0,0,4.8-5.72,5.32,5.32,0,0,0,0-.69l58.06-.5a7.57,7.57,0,0,0,5.14,6.63l-50,188.86a5.07,5.07,0,0,1,.56-.05Q501.17,504.3,495.73,510.26Zm84.31-127q-7.11,12.3-14.2,24.61c-7.74,13.43-15.91,26.91-23.81,39.94l-1.21,2A394.85,394.85,0,0,1,507,497.26l49.68-187.73a7.35,7.35,0,0,0,1.42.15,7.61,7.61,0,0,0,6.81-4.19l47.77,20.18a3.06,3.06,0,0,1,.56-.82l-47.95-20.26a7.38,7.38,0,0,0,.36-1.56L624,306.47C609.45,332.29,594.54,358.11,580,383.23Zm82.59-188.56c-2.49,32.55-12.41,64.64-29.48,95.37q-4.29,7.72-8.65,15.48l-58.76-3.46a7.36,7.36,0,0,0-.86-3.46L652,245.79a.49.49,0,0,0,.22-.52.47.47,0,0,0-.42-.38l-85.59-9.72c0-.14,0-.28,0-.41a8.24,8.24,0,0,0-.64-3.23l97.2-47.05A80.92,80.92,0,0,1,662.63,194.67Z"/></svg>