<?xml version="1.0" encoding="utf-8"?>
<!-- Generator: Adobe Illustrator 25.2.1, SVG Export Plug-In . SVG Version: 6.00 Build 0)  -->
<svg version="1.1" id="Capa_1" xmlns="http://www.w3.org/2000/svg" xmlns:xlink="http://www.w3.org/1999/xlink" x="0px" y="0px"
	 viewBox="0 0 869 781" width="636" height="533.5" style="enable-background:new 0 0 869 781;" xml:space="preserve">
<style type="text/css">
	.st0{fill:#FFFFFF;}
	.st1{fill:#C4C4C4;}
	.st2{fill:#231F20;}
</style>
<g>
	<g>
		<g>
			<path class="st0" d="M378.47,678.9l-1.18-0.91c-0.44-0.34-0.87-0.67-1.31-1.02l-0.5-0.39l0.45-0.45c1-0.99,1.99-2.04,2.96-3.05
				c2.06-2.17,4.18-4.42,6.56-6.28c14.95-11.72,20.21-27.87,16.55-50.8c-0.25-1.54-1.47-2.96-2.76-4.47
				c-0.52-0.61-1.06-1.24-1.54-1.88l-0.05,0.01c-0.75,0.15-1.5,0.3-2.25,0.45c-0.31,2.52-0.6,5.05-0.89,7.58
				c-0.7,6.04-1.42,12.29-2.37,18.41c-1.51,9.84-6.35,16.24-14.79,19.56l-1.91,0.75l1.26-1.62c10.56-13.54,12.04-28.89,12.65-48.89
				c-0.39,0.5-0.75,0.93-1.06,1.32c-0.93,1.13-1.48,1.81-1.61,2.5c-1.78,9.84-7.52,16.11-17.56,19.16
				c-6.71,2.05-10.06,6.54-10.86,14.56c-0.52,5.21-1.91,10.41-3.26,15.43c-0.59,2.2-1.2,4.47-1.72,6.7l-0.13,0.53l-1.34-0.28
				c-0.57-0.12-1.14-0.24-1.71-0.36l-0.49-0.1l0.04-0.5c0.27-3.01,0.5-6.07,0.73-9.03c0.52-6.93,1.07-14.09,2.13-21.06
				c1.21-7.92,7.76-10.43,14.11-12.85l0.6-0.23c13.01-5.01,13.89-6.29,13.4-21.78c-0.83,0-1.66,0.01-2.49,0.01
				c-2.34,0.01-4.75,0.03-7.14-0.03c-2.5-0.05-5.07,0-7.56,0.05c-5.87,0.12-11.94,0.24-17.67-0.98c-15.02-3.18-30.02-2.6-45.86,1.78
				l-0.3,0.08c-3.77,1.04-7.68,2.12-11.57,2.21c-4.56,0.09-8.41-1.57-10.47-4.59c-1.95-2.85-2.14-6.57-0.52-10.48
				c2.45-5.9,7.31-11.49,12.09-13.92c6.34-3.19,13.33-5.27,20.09-7.28c2.43-0.72,4.94-1.47,7.4-2.26c-4.45-2.54-8.9-5.1-13.37-7.67
				c-10.67-6.14-21.71-12.5-32.72-18.51c-21.49-11.74-39.15-21.06-55.59-29.33c-14.98-7.54-33.72-18.77-45.75-38.91
				c-3.92-6.56-7.86-13.11-11.8-19.67c-8.05-13.39-16.37-27.23-24.4-40.95c-9.56-16.33-13.83-34.04-12.67-52.63
				c0.57-9.19,2.83-18.55,6.37-26.34c9.31-20.52,26.87-27.81,48.16-20.01c5.61,2.06,11.05,4.73,16.8,7.55
				c2.53,1.24,5.14,2.53,7.88,3.81c0-1.74-0.01-3.4-0.01-5c-0.01-3.7-0.02-7.2,0.01-10.65c0.18-18.56,6.79-32.1,19.65-40.26
				c17.84-11.33,28.03-27.7,33.03-53.08c2.64-13.4,7.12-26.78,12.95-38.68c6.48-13.22,16.16-22.23,28-26.08
				c11.32-3.68,23.69-2.24,35.75,4.16c15.79,8.38,30.28,21.05,41.92,31.23c39.37,34.43,63.14,80.86,74.81,146.12
				c8.75,48.92,11.63,86.67,9.33,122.4c-2.68,41.69-12.46,76.66-29.91,106.92c-1.3,2.25-2.34,4.62-3.55,7.36
				c-0.49,1.11-0.99,2.26-1.55,3.47c7.51,0.24,13.52,0.22,19.12-5.75c3.71-3.95,10.82-5.84,15.97-5.64
				c4.84,0.14,7.52-1.46,11.05-4.72c14.97-13.75,34.07-21.29,58.41-23.06l4.04-0.29l-3.8,1.38c-3.45,1.25-6.99,2.43-10.41,3.58
				c-16.34,5.47-33.22,11.12-45.29,25.58c1.93-0.97,3.86-1.95,5.79-2.92c24.33-12.31,49.49-25.04,78.86-20
				c3.93,0.68,7.48,2.31,10.86,5l1.69,1.35l-2.13-0.36c-29.4-4.93-58.69,2.18-89.54,21.75c-0.9,3.11-1.77,6.05-2.6,8.87
				c-2.13,7.21-3.96,13.44-5.63,19.83c-0.93,3.58-1.23,7.42-1.52,11.13l-0.03,0.4c-0.66,8.46-2.22,9.64-12.83,9.76l-1.76,0.02
				l1.43-1.03c0.55-0.4,1.12-0.79,1.67-1.18c4.46-3.11,7.99-5.57,4.7-10.58c-9.03-2.64-16.2,1.03-23.79,4.91
				c-4.26,2.18-8.66,4.43-13.58,5.68c1.59,2.12,3.08,4.11,4.51,6c3.32,4.4,6.2,8.2,8.97,12.17c7.25,10.39,6.69,15.05-2.87,23.76
				c-4.86,4.43-9.47,9.34-13.92,14.09c-2.16,2.31-4.4,4.69-6.64,6.99c-0.41,0.43-1.36,0.56-1.89,0.25
				c-0.36-0.19-0.54-0.57-0.77-1.05c-0.1-0.22-0.23-0.48-0.4-0.77l-0.12-0.22l0.08-0.24c3.61-10.52,11.71-17.28,19.54-23.82
				c1.81-1.51,3.67-3.06,5.44-4.64c-2.33-11.84-13.51-27.62-22.67-32.14c-0.1,0.92-0.23,1.83-0.36,2.72
				c-0.34,2.37-0.66,4.61-0.31,6.7c4.66,28.17-13.27,43.37-30.44,55.41L378.47,678.9z M377.17,676.48c0.27,0.21,0.54,0.42,0.81,0.62
				l0.53,0.41c17.54-12.33,34.16-26.72,29.64-54.08c-0.38-2.26-0.04-4.58,0.31-7.04c0.16-1.12,0.33-2.28,0.42-3.45l0.06-0.78
				l0.72,0.31c9.63,4.18,21.79,21.14,24.09,33.6l0.06,0.31l-0.23,0.21c-1.85,1.65-3.81,3.29-5.7,4.87
				c-7.66,6.39-15.57,13-19.12,23.09c0.12,0.23,0.22,0.43,0.31,0.61c0.11,0.23,0.25,0.52,0.32,0.57c0.12,0.05,0.44,0.01,0.53-0.06
				c2.23-2.29,4.46-4.67,6.62-6.98c4.47-4.77,9.09-9.69,13.98-14.16c9.18-8.36,9.66-12.32,2.7-22.29
				c-2.76-3.96-5.62-7.75-8.94-12.14c-1.58-2.1-3.25-4.3-5.03-6.69l-0.51-0.69l0.84-0.19c5.13-1.16,9.71-3.51,14.15-5.78
				c7.85-4.02,15.26-7.82,24.82-4.93l0.19,0.06l0.11,0.16c4.09,6.04-0.47,9.22-4.88,12.29c-0.06,0.04-0.11,0.08-0.17,0.12
				c8.65-0.24,9.36-1.64,9.91-8.69l0.03-0.4c0.29-3.76,0.59-7.64,1.55-11.32c1.67-6.4,3.51-12.64,5.63-19.86
				c0.85-2.88,1.73-5.88,2.66-9.07l0.06-0.2l0.18-0.11c30.36-19.3,59.25-26.63,88.21-22.38c-2.67-1.78-5.47-2.91-8.5-3.43
				c-29-4.98-53.99,7.67-78.16,19.9c-2.69,1.36-5.37,2.72-8.07,4.06l-2.15,1.07l1.45-1.91c12.36-16.21,30.18-22.17,47.4-27.94
				c2.04-0.68,4.12-1.38,6.2-2.09c-21.98,2.3-39.45,9.65-53.31,22.38c-3.1,2.85-6.12,5.18-11.85,5.01
				c-4.76-0.18-11.68,1.62-15.12,5.29c-6.16,6.56-12.63,6.35-20.82,6.08l-0.85-0.03l0.36-0.77c0.69-1.48,1.31-2.88,1.89-4.22
				c1.22-2.77,2.27-5.16,3.6-7.47c17.36-30.1,27.09-64.91,29.76-106.43c2.29-35.64-0.58-73.31-9.32-122.13
				c-11.63-65-35.28-111.22-74.45-145.47c-11.6-10.14-26.03-22.76-41.7-31.08c-11.79-6.25-23.86-7.66-34.88-4.08
				c-11.55,3.75-21,12.57-27.34,25.51c-5.79,11.82-10.23,25.1-12.86,38.4c-5,25.36-15.65,42.46-33.53,53.81
				c-12.52,7.95-18.95,21.18-19.13,39.33c-0.03,3.45-0.02,6.94-0.01,10.64c0,1.88,0.01,3.83,0.01,5.89v0.88l-0.8-0.37
				c-3.04-1.42-5.92-2.83-8.7-4.19c-5.73-2.81-11.14-5.47-16.69-7.51c-20.68-7.58-37.72-0.5-46.76,19.42
				c-3.48,7.67-5.71,16.88-6.27,25.94c-1.14,18.36,3.07,35.86,12.52,51.99c8.02,13.72,16.34,27.56,24.39,40.94
				c3.94,6.55,7.88,13.1,11.8,19.67c11.88,19.88,30.44,31.01,45.29,38.48c16.44,8.28,34.12,17.6,55.62,29.35
				c11.02,6.02,22.06,12.38,32.74,18.52c4.83,2.78,9.65,5.56,14.46,8.3l1.09,0.62l-1.19,0.39c-2.86,0.95-5.79,1.82-8.63,2.66
				c-6.71,2-13.66,4.06-19.9,7.21c-4.56,2.31-9.21,7.67-11.56,13.35c-1.47,3.54-1.32,6.89,0.41,9.42c1.85,2.7,5.31,4.2,9.53,4.1
				c3.76-0.08,7.59-1.14,11.3-2.16l0.3-0.08c16.01-4.42,31.18-5.01,46.39-1.79c5.61,1.19,11.61,1.07,17.41,0.95
				c2.5-0.05,5.08-0.1,7.6-0.05c2.37,0.06,4.78,0.05,7.11,0.03c1.02-0.01,2.03-0.01,3.04-0.01h0.54l0.02,0.54
				c0.54,16.42-0.51,18.17-14.1,23.4l-0.6,0.23c-6.04,2.31-12.29,4.7-13.4,11.98c-1.05,6.92-1.59,14.06-2.12,20.97
				c-0.21,2.8-0.43,5.7-0.68,8.55c0.41,0.08,0.81,0.17,1.22,0.25l0.28,0.06c0.5-2.08,1.06-4.17,1.6-6.21
				c1.33-4.98,2.71-10.13,3.23-15.25c0.84-8.42,4.54-13.35,11.64-15.52c9.6-2.92,15.09-8.9,16.78-18.29
				c0.18-0.98,0.84-1.79,1.85-3.01c0.57-0.7,1.28-1.56,2.08-2.68l1.06-1.48l-0.05,1.82c-0.56,20.24-1.76,35.81-11.65,49.6
				c6.85-3.35,10.83-9.21,12.16-17.84c0.94-6.1,1.66-12.34,2.36-18.37c0.31-2.66,0.62-5.33,0.94-7.99l0.05-0.4l0.39-0.08
				c0.88-0.18,1.76-0.36,2.64-0.53l0.76-0.15l0.21,0.3c0.49,0.7,1.1,1.41,1.68,2.09c1.34,1.56,2.72,3.17,3.02,5.02
				c3.73,23.38-1.66,39.86-16.96,51.86c-2.31,1.81-4.41,4.03-6.43,6.17C378.88,674.72,378.03,675.61,377.17,676.48z"/>
		</g>
		<g>
			<path class="st0" d="M432,563.36l-0.3-0.47c-0.54-0.84-1.08-1.68-1.62-2.51l-0.18-0.27l0.15-0.29c1.83-3.61,3.68-7.2,5.53-10.79
				c4.04-7.84,8.22-15.95,12.06-24.05c9.91-20.86,13.4-44.16,15.89-64.37c4.04-32.8,3.07-67.33-3.06-108.67
				c-4.64-31.26-9.73-55.04-16.51-77.13c-2.26-7.36-2.35-12.29-0.29-15.98c2.02-3.61,6.11-6.04,13.24-7.87
				c11.73-3.01,22.26-8.96,33.15-18.75c4.25-3.82,9.28-6.81,14.15-9.7c2.67-1.59,5.43-3.22,8.03-4.98c0.73-0.49,1.45-0.98,2.18-1.47
				c4.7-3.15,9.56-6.4,13.7-10.29c2.49-2.34,4.72-5.1,6.88-7.76c2.33-2.87,4.73-5.84,7.5-8.34l0.61-0.55
				c4.4-3.98,9.88-8.94,15.23-9.31c15.36-1.1,25.06-10.3,35.33-20.05c2.06-1.95,4.19-3.98,6.34-5.89
				c12.05-10.75,24.58-14.88,38.31-12.64c7.65,1.25,13.24,5.3,17.08,12.4c6.68,12.33,9.48,26.17,8.33,41.12
				c-2.5,32.71-12.47,64.95-29.62,95.82c-17.35,31.28-35.53,62.76-53.12,93.21c-4.74,8.2-9.48,16.41-14.2,24.62
				c-7.75,13.44-15.92,26.92-23.82,39.96l-1.21,1.99c-20.81,34.35-46.42,65-76.12,91.08c-6.78,5.95-14.78,10.64-22.52,15.18
				c-3.53,2.07-7.18,4.21-10.67,6.44L432,563.36z M431.19,560.03c0.38,0.59,0.77,1.18,1.15,1.78c3.36-2.13,6.85-4.18,10.23-6.16
				c7.69-4.51,15.64-9.17,22.34-15.05c29.61-26,55.15-56.56,75.9-90.82l1.21-1.99c7.9-13.03,16.07-26.51,23.81-39.94
				c4.73-8.21,9.47-16.41,14.2-24.62c17.58-30.44,35.76-61.92,53.11-93.19c17.07-30.73,26.99-62.81,29.48-95.36
				c1.13-14.73-1.62-28.36-8.2-40.5c-3.72-6.87-8.89-10.63-16.28-11.83c-13.37-2.19-25.61,1.86-37.39,12.37
				c-2.14,1.91-4.26,3.92-6.31,5.87c-9.96,9.45-20.26,19.23-36.02,20.36c-4.97,0.35-10.29,5.16-14.56,9.03l-0.61,0.55
				c-2.7,2.44-5.08,5.38-7.38,8.22c-2.18,2.69-4.44,5.48-6.98,7.87c-4.2,3.95-9.1,7.23-13.84,10.4c-0.73,0.49-1.46,0.98-2.18,1.46
				c-2.62,1.77-5.4,3.42-8.08,5.01c-4.82,2.86-9.81,5.82-13.98,9.56c-11.02,9.91-21.71,15.95-33.62,19
				c-6.81,1.75-10.68,4.01-12.54,7.33c-1.9,3.4-1.79,8.06,0.38,15.1c6.8,22.14,11.9,45.98,16.55,77.29
				c6.14,41.44,7.11,76.07,3.06,108.97c-2.51,20.3-6.02,43.71-15.99,64.72c-3.85,8.12-8.03,16.23-12.08,24.08
				C434.77,553.03,432.97,556.53,431.19,560.03z"/>
		</g>
	</g>
	<g id="triangle36_1411_">
		<g>
			<path class="st1" d="M177.19,466.45c-0.08,0-0.17-0.02-0.24-0.07c-0.12-0.07-0.21-0.19-0.23-0.32l-5.02-24.27
				c-0.03-0.13,0-0.27,0.08-0.39c0.08-0.11,0.2-0.18,0.34-0.2l124.21-14.39c0.26-0.04,0.48,0.14,0.53,0.38
				c0.05,0.25-0.09,0.49-0.33,0.57l-119.19,38.66C177.3,466.44,177.24,466.45,177.19,466.45z M172.76,442.12l4.8,23.21l113.99-36.97
				L172.76,442.12z"/>
		</g>
	</g>
	<g id="triangle36_1382_">
		<g>
			<path class="st1" d="M449.45,488.22l-152.12-61.07l103.57-85.36l53.8,89.22c0.04-0.46,0.15-0.91,0.34-1.33l-53.59-88.88
				c-0.07-0.12-0.2-0.21-0.34-0.23c-0.14-0.03-0.28,0.01-0.39,0.11l-104.64,86.25c-0.13,0.11-0.2,0.28-0.17,0.45
				c0.03,0.17,0.14,0.32,0.3,0.38l152.97,61.42C449.23,488.84,449.32,488.52,449.45,488.22z"/>
		</g>
		<g>
			<path class="st1" d="M458.64,491.92c0.06,0.35,0.08,0.72,0.05,1.07l38.05,15.28c0.02-0.01,0.03-0.01,0.05-0.02
				c0.2-0.27,0.43-0.52,0.71-0.73L458.64,491.92z"/>
		</g>
		<g>
			<path class="st1" d="M465.08,446.32c-0.09,0.41-0.24,0.79-0.46,1.14l34.18,56.68c0.15-0.34,0.34-0.65,0.58-0.93L465.08,446.32z"
				/>
		</g>
	</g>
	<g id="triangle36_1381_">
		<g>
			<path class="st1" d="M455.04,429.67l-53.31-88.4l41.35-18.49c-0.13-0.3-0.22-0.62-0.28-0.95l-41.98,18.77
				c-0.13,0.06-0.23,0.17-0.27,0.3c-0.04,0.13-0.02,0.28,0.05,0.4l54.09,89.7C454.74,430.55,454.85,430.09,455.04,429.67z"/>
		</g>
		<g>
			<path class="st1" d="M465.08,446.32c-0.09,0.41-0.24,0.79-0.46,1.14l34.18,56.68c0.15-0.34,0.34-0.65,0.58-0.93L465.08,446.32z"
				/>
		</g>
		<g>
			<path class="st1" d="M487.26,302.67c-0.01-0.16-0.1-0.3-0.24-0.38c-0.14-0.08-0.31-0.09-0.45-0.03l-31.86,14.25
				c0.14,0.29,0.25,0.6,0.32,0.93l31.31-14l15.6,198.63c0.04,0,0.08-0.01,0.13-0.01c0.19,0,0.37,0.02,0.55,0.04
				c0.07-0.12,0.16-0.24,0.25-0.35c0-0.12-0.01-0.25,0.01-0.37L487.26,302.67z"/>
		</g>
	</g>
	<g id="triangle36_1380_">
		<g>
			<path class="st1" d="M558.55,301.8c-0.09-0.12-0.29-0.17-0.39-0.19l-71.4,0.61c-0.14,0-0.26,0.06-0.36,0.16
				c-0.09,0.1-0.14,0.23-0.13,0.37l15.66,199.32c0.04,0,0.08-0.01,0.13-0.01c0.19,0,0.37,0.02,0.55,0.04
				c0.07-0.12,0.16-0.24,0.25-0.35c0-0.12-0.01-0.25,0.01-0.37L487.3,303.19l70.23-0.59l-51.75,195.54
				c0.21-0.03,0.43-0.06,0.66-0.06c0.12,0,0.24,0.01,0.36,0.02l51.84-195.88C558.68,302.08,558.65,301.92,558.55,301.8z"/>
		</g>
	</g>
	<g>
		<path class="st1" d="M544.61,542.29c0.27-0.03,0.54-0.04,0.8-0.05l-7.7-5.93c-0.55,0.12-1.15,0.09-1.76-0.12l8.06,6.2
			C544.2,542.35,544.4,542.31,544.61,542.29z"/>
	</g>
	<g id="triangle36_1378_">
		<g>
			<path class="st1" d="M486.77,303.2c-0.2,0-0.38-0.12-0.45-0.31c-0.08-0.19-0.03-0.4,0.11-0.54l71.1-67.99
				c0.14-0.14,0.35-0.17,0.53-0.1c0.18,0.08,0.3,0.25,0.3,0.45l0.3,67.39c0,0.27-0.22,0.49-0.48,0.49L486.77,303.2
				C486.77,303.2,486.77,303.2,486.77,303.2z M557.38,235.85L488,302.21l69.68-0.59L557.38,235.85z"/>
		</g>
	</g>
	<g>
		<path class="st1" d="M558.36,233.93l-0.06-54.73c-0.29,0.15-0.62,0.26-0.98,0.32l0.06,55.19c0,0.17,0.09,0.33,0.23,0.41
			c0.08,0.05,0.17,0.07,0.26,0.07c0.07,0,0.15-0.02,0.22-0.05l105.31-50.97c-0.09-0.33-0.14-0.67-0.16-1.01L558.36,233.93z"/>
	</g>
	<g id="triangle36_1376_">
		<g>
			<path class="st1" d="M558.17,302.59c-0.08,0-0.16-0.02-0.24-0.06c-0.15-0.09-0.25-0.25-0.25-0.42l-0.3-67.39
				c0-0.14,0.06-0.27,0.16-0.37c0.1-0.09,0.25-0.13,0.38-0.12l93.85,10.66c0.21,0.02,0.38,0.18,0.42,0.38
				c0.04,0.2-0.05,0.41-0.22,0.52l-93.55,56.73C558.34,302.57,558.25,302.59,558.17,302.59z M558.36,235.26l0.29,65.97l91.59-55.54
				L558.36,235.26z"/>
		</g>
	</g>
	<g id="triangle36_1363_">
		<g>
			<path class="st1" d="M234.22,509.4c-0.1,0-0.21-0.03-0.29-0.1l-57.03-42.95c-0.19-0.15-0.25-0.41-0.14-0.62
				c0.12-0.21,0.37-0.31,0.6-0.23l90.52,32.94c0.2,0.07,0.33,0.26,0.32,0.47c-0.01,0.21-0.15,0.39-0.35,0.45l-33.5,10.01
				C234.31,509.39,234.27,509.4,234.22,509.4z M180.1,467.54l54.21,40.83l31.85-9.52L180.1,467.54z"/>
		</g>
	</g>
	<g id="triangle36_1362_">
		<g>
			<path class="st1" d="M267.72,499.39c-0.05,0-0.11-0.01-0.17-0.03l-90.52-32.94c-0.2-0.07-0.33-0.26-0.32-0.47
				c0-0.21,0.14-0.39,0.34-0.46l119.19-38.66c0.18-0.06,0.38-0.01,0.51,0.13c0.13,0.14,0.17,0.34,0.1,0.52l-28.67,71.6
				C268.1,499.27,267.91,499.39,267.72,499.39z M178.7,465.98l88.74,32.3l28.1-70.19L178.7,465.98z"/>
		</g>
	</g>
	<g>
		<path class="st1" d="M234.69,509.28l32.34-9.66l-8.02,31.32c0.33,0.12,0.63,0.28,0.89,0.48l8.29-32.39
			c0.04-0.17-0.01-0.35-0.14-0.47c-0.13-0.12-0.31-0.17-0.48-0.12l-33.5,10.01c-0.2,0.06-0.34,0.24-0.35,0.44l-0.53,9.54
			c0.35,0.05,0.67,0.14,0.96,0.26L234.69,509.28z"/>
	</g>
	<g id="triangle36_1360_">
		<g>
			<path class="st1" d="M445.62,507.01l-177.19-8.57l28.23-70.51l152.51,61.23c0.05-0.33,0.15-0.64,0.28-0.94l-152.88-61.38
				c-0.12-0.05-0.25-0.05-0.37,0c-0.12,0.05-0.21,0.15-0.26,0.27l-28.67,71.6c-0.06,0.15-0.04,0.31,0.04,0.45
				c0.09,0.13,0.23,0.22,0.39,0.22l177.56,8.59C445.33,507.64,445.46,507.32,445.62,507.01z"/>
		</g>
		<g>
			<path class="st1" d="M454.79,507.46c-0.15,0.35-0.35,0.67-0.61,0.95l40.54,1.96c0.12-0.34,0.29-0.66,0.5-0.96L454.79,507.46z"/>
		</g>
		<g>
			<path class="st1" d="M458.64,491.92c0.06,0.35,0.08,0.72,0.05,1.07l38.05,15.28c0.02-0.01,0.03-0.01,0.05-0.02
				c0.2-0.27,0.43-0.52,0.71-0.73L458.64,491.92z"/>
		</g>
	</g>
	<g id="triangle36_1359_">
		<g>
			<path class="st1" d="M296.38,427.79c-0.06,0-0.12-0.01-0.18-0.03c-0.17-0.07-0.28-0.22-0.3-0.39l-24.13-186.77
				c-0.03-0.2,0.07-0.39,0.24-0.49c0.17-0.1,0.39-0.08,0.54,0.04l128.77,100.53c0.12,0.09,0.19,0.23,0.19,0.38
				c0,0.15-0.06,0.29-0.18,0.38L296.7,427.67C296.61,427.75,296.5,427.79,296.38,427.79z M272.89,241.64l23.87,184.71l103.49-85.29
				L272.89,241.64z"/>
		</g>
	</g>
	<g id="triangle36_1358_">
		<g>
			<path class="st1" d="M385.84,198.54c-0.37-0.27-0.73-0.56-1.08-0.87l15.65,142.28l-127.22-99.31l105.83-47.48
				c-0.35-0.17-0.66-0.4-0.91-0.66l-106.06,47.59c-0.16,0.07-0.26,0.22-0.29,0.39c-0.02,0.17,0.05,0.34,0.18,0.44l128.77,100.53
				c0.09,0.07,0.19,0.1,0.3,0.1c0.08,0,0.17-0.02,0.24-0.06c0.17-0.1,0.27-0.29,0.25-0.48L385.84,198.54z"/>
		</g>
	</g>
	<g>
		<path class="st1" d="M557.99,234.24l-50.81-13.04c-0.17,0.31-0.38,0.6-0.64,0.85l50.36,12.93l-70.1,67.04l-40.84-44.9
			c-0.2,0.25-0.44,0.48-0.71,0.67l41.16,45.25c0.09,0.1,0.21,0.16,0.34,0.16h0.01c0.13,0,0.25-0.05,0.34-0.14l71.1-67.99
			c0.13-0.12,0.18-0.3,0.14-0.48C558.3,234.42,558.16,234.28,557.99,234.24z"/>
	</g>
	<g>
		<path class="st1" d="M357.9,637.89l-5.68,1.06c0.11,0.31,0.17,0.63,0.2,0.96l5.19-0.97C357.67,638.58,357.76,638.22,357.9,637.89z
			"/>
	</g>
	<g>
		<path class="st1" d="M386.24,632.61c0.04,0.33,0.05,0.66,0.01,0.99l6.94-1.29c0.12-0.39,0.3-0.76,0.54-1.1L386.24,632.61z"/>
	</g>
	<g>
		<path class="st1" d="M401.91,630.68l7.2-1.34c-0.18-0.28-0.32-0.59-0.42-0.92l-6.54,1.22
			C402.13,629.99,402.04,630.35,401.91,630.68z"/>
	</g>
	<g>
		<path class="st1" d="M427.72,608.83L268,498.5c-0.13-0.09-0.3-0.11-0.45-0.06c-0.15,0.06-0.26,0.18-0.3,0.34l-8.23,32.16
			c0.33,0.12,0.63,0.28,0.89,0.48l8.12-31.71l158.93,109.78C427.17,609.23,427.42,609,427.72,608.83z"/>
	</g>
	<g>
		<path class="st1" d="M428.57,624.71l-5.53,1.03c0.11,0.31,0.18,0.63,0.22,0.95l5.69-1.06
			C428.78,625.35,428.65,625.04,428.57,624.71z"/>
	</g>
	<g>
		<path class="st1" d="M445.25,507.98c0.08-0.34,0.2-0.66,0.37-0.96l-177.88-8.6c-0.21,0-0.42,0.13-0.49,0.33
			c-0.07,0.21,0.01,0.44,0.19,0.56l159.5,110.18c0.22-0.25,0.48-0.47,0.78-0.65L269.41,499.47L445.25,507.98z"/>
	</g>
	<g>
		<path class="st1" d="M454.79,507.46c-0.15,0.35-0.35,0.67-0.61,0.95l40.54,1.96c0.12-0.34,0.29-0.66,0.5-0.96L454.79,507.46z"/>
	</g>
	<g>
		<path class="st1" d="M484.75,547.15l4.42-8.63c-0.38,0.21-0.81,0.36-1.31,0.42l-4.08,7.97
			C484.13,546.95,484.46,547.04,484.75,547.15z"/>
	</g>
	<g>
		<path class="st1" d="M478.98,556.29C478.98,556.29,478.98,556.29,478.98,556.29l-22.81,44.55c0.3,0.17,0.56,0.39,0.78,0.63
			l23.21-45.35C479.81,556.23,479.42,556.29,478.98,556.29z"/>
	</g>
	<g id="triangle36_1315_">
		<g>
			<path class="st1" d="M296.67,426.9L138.63,314.02c-0.07,0.34-0.18,0.66-0.33,0.97l156.76,111.97l-122.55,14.2l-37.64-124.27
				c-0.2-0.01-0.39-0.03-0.57-0.07c-0.03,0.31-0.1,0.61-0.2,0.9l37.59,124.11c0.06,0.21,0.25,0.35,0.47,0.35c0.02,0,0.04,0,0.06,0
				l124.21-14.39c0.2-0.02,0.37-0.17,0.42-0.36C296.91,427.22,296.83,427.02,296.67,426.9z"/>
		</g>
	</g>
	<g id="triangle36_1314_">
		<g>
			<path class="st1" d="M272.74,240.46c-0.02-0.16-0.12-0.29-0.25-0.37c-0.14-0.07-0.31-0.08-0.45-0.01l-56.15,27.92
				c0.05,0.36,0.05,0.73,0.01,1.09l55.96-27.83l23.9,184.98L138.63,314.01c-0.07,0.34-0.18,0.66-0.33,0.97L296.1,427.7
				c0.08,0.06,0.18,0.09,0.28,0.09c0.09,0,0.18-0.02,0.25-0.07c0.17-0.1,0.26-0.29,0.23-0.48L272.74,240.46z"/>
		</g>
	</g>
	<g>
		<path class="st1" d="M172.65,441.59c-0.04-0.18-0.17-0.32-0.35-0.37c-0.18-0.05-0.37,0-0.49,0.14l-11.46,12.37
			c0.23,0.24,0.43,0.51,0.59,0.81l10.94-11.81l4.77,23.03l-6.79,5.1c0.28,0.19,0.51,0.43,0.71,0.69l6.91-5.19
			c0.15-0.11,0.22-0.3,0.19-0.49L172.65,441.59z"/>
	</g>
	<g>
		<path class="st1" d="M613.27,324.85l-54.91-23.2c-0.13-0.05-0.28-0.05-0.41,0.01c-0.13,0.06-0.22,0.18-0.26,0.31l-51.91,196.16
			c0.21-0.03,0.43-0.06,0.66-0.06c0.12,0,0.24,0.01,0.36,0.02l51.69-195.33l54.21,22.9C612.86,325.37,613.04,325.09,613.27,324.85z"
			/>
	</g>
	<g>
		<path class="st1" d="M624.37,306.49c0.09-0.34,0.22-0.66,0.4-0.96l-66.57-3.92c-0.27-0.02-0.45,0.14-0.51,0.38
			c-0.05,0.23,0.07,0.47,0.29,0.56l54.73,23.12c0.15-0.3,0.33-0.58,0.56-0.83l-52.29-22.09L624.37,306.49z"/>
	</g>
	<g id="triangle36_1121_">
		<g>
			<path class="st1" d="M378.11,192.5l-105.37,47.28l-0.06-76.95c-0.24,0.41-0.57,0.77-0.98,1.05l0.06,76.66
				c0,0.17,0.08,0.32,0.22,0.41c0.08,0.05,0.17,0.08,0.26,0.08c0.07,0,0.14-0.01,0.2-0.04l106.57-47.82
				C378.67,192.99,378.37,192.76,378.11,192.5z"/>
		</g>
		<g>
			<path class="st1" d="M368.72,181.35l-66.83-35.26c-0.27,0.25-0.6,0.45-0.97,0.6l67.94,35.85
				C368.76,182.15,368.71,181.75,368.72,181.35z"/>
		</g>
	</g>
	<g>
		<path class="st1" d="M368.72,181.35l-66.83-35.26c-0.27,0.25-0.6,0.45-0.97,0.6l67.94,35.85
			C368.76,182.15,368.71,181.75,368.72,181.35z"/>
	</g>
	<g>
		<g>
			
				<ellipse transform="matrix(0.9969 -0.0786 0.0786 0.9969 -25.5649 32.5743)" class="st1" cx="401.03" cy="341.05" rx="6.48" ry="6.48"/>
		</g>
		<g>
			<path class="st2" d="M401.06,334.57c3.58,0.02,6.46,2.93,6.45,6.51c-0.02,3.58-2.93,6.46-6.51,6.45
				c-3.58-0.02-6.46-2.93-6.45-6.51C394.57,337.44,397.48,334.55,401.06,334.57 M401.07,332.62c-4.65-0.02-8.45,3.74-8.48,8.39
				c-0.02,4.65,3.74,8.45,8.39,8.48c4.65,0.02,8.45-3.74,8.48-8.39C409.49,336.44,405.72,332.64,401.07,332.62L401.07,332.62z"/>
		</g>
	</g>
	<g>
		<g>
			<path class="st1" d="M490.19,303.83c0.01-1.89-1.52-3.43-3.41-3.44c-1.89-0.01-3.43,1.52-3.44,3.41
				c-0.01,1.89,1.51,3.43,3.41,3.44C488.64,307.25,490.18,305.72,490.19,303.83z"/>
		</g>
		<g>
			<path class="st2" d="M486.78,300.39c1.89,0.01,3.42,1.55,3.41,3.44c-0.01,1.89-1.55,3.42-3.44,3.41
				c-1.89-0.01-3.42-1.55-3.41-3.44C483.35,301.91,484.89,300.38,486.78,300.39 M486.79,297.98c-3.22-0.02-5.85,2.59-5.87,5.81
				c-0.02,3.22,2.59,5.85,5.81,5.87c3.22,0.02,5.85-2.59,5.87-5.81C492.62,300.62,490.01,297.99,486.79,297.98L486.79,297.98z"/>
		</g>
	</g>
	<g>
		<g>
			<path class="st1" d="M557.84,241.1c3.53,0.02,6.4-2.83,6.42-6.35c0.02-3.53-2.83-6.4-6.35-6.42c-3.53-0.02-6.4,2.83-6.42,6.35
				C551.47,238.21,554.31,241.08,557.84,241.1z"/>
		</g>
		<g>
			<path class="st2" d="M557.9,228.33c3.53,0.02,6.37,2.89,6.35,6.42c-0.02,3.53-2.89,6.37-6.42,6.35
				c-3.53-0.02-6.37-2.89-6.35-6.42C551.5,231.15,554.38,228.31,557.9,228.33 M557.91,226.37c-4.6-0.02-8.36,3.7-8.38,8.3
				c-0.02,4.6,3.7,8.36,8.3,8.38c4.6,0.02,8.36-3.7,8.38-8.3C566.23,230.16,562.51,226.4,557.91,226.37L557.91,226.37z"/>
		</g>
	</g>
	<g>
		<g>
			<path class="st1" d="M267.75,493.13c-3.19-0.02-5.78,2.55-5.8,5.74c-0.02,3.19,2.55,5.78,5.74,5.8c3.19,0.02,5.78-2.55,5.8-5.74
				C273.5,495.74,270.93,493.15,267.75,493.13z"/>
		</g>
		<g>
			<path class="st2" d="M267.75,493.13c3.19,0.02,5.76,2.61,5.74,5.8c-0.02,3.19-2.61,5.75-5.8,5.74c-3.19-0.02-5.75-2.61-5.74-5.8
				C261.97,495.69,264.56,493.12,267.75,493.13 M267.76,491.18c-4.26-0.02-7.74,3.43-7.76,7.68c-0.02,4.26,3.43,7.74,7.68,7.76
				c4.26,0.02,7.74-3.43,7.76-7.68C275.47,494.68,272.02,491.2,267.76,491.18L267.76,491.18z"/>
		</g>
	</g>
	<g>
		<g>
			<path class="st1" d="M296.42,420.92c-3.52-0.02-6.39,2.82-6.41,6.34c-0.02,3.52,2.82,6.39,6.34,6.41
				c3.52,0.02,6.39-2.82,6.41-6.34C302.78,423.81,299.94,420.94,296.42,420.92z"/>
		</g>
		<g>
			<path class="st2" d="M296.42,420.92c3.52,0.02,6.36,2.89,6.34,6.41c-0.02,3.52-2.89,6.36-6.41,6.34
				c-3.52-0.02-6.36-2.89-6.34-6.41C290.03,423.74,292.9,420.91,296.42,420.92 M296.43,418.97c-4.59-0.02-8.35,3.69-8.37,8.29
				c-0.02,4.59,3.69,8.35,8.29,8.37c4.59,0.02,8.35-3.69,8.37-8.29C304.74,422.75,301.02,418.99,296.43,418.97L296.43,418.97z"/>
		</g>
	</g>
	<g>
		<g>
			<path class="st1" d="M172.16,446.87c2.27,0.01,4.12-1.82,4.13-4.09s-1.82-4.12-4.09-4.13c-2.27-0.01-4.12,1.82-4.13,4.09
				C168.06,445.01,169.89,446.86,172.16,446.87z"/>
		</g>
	</g>
	<g>
		<g>
			<path class="st1" d="M177.21,462.36c-1.98-0.01-3.6,1.59-3.61,3.58c-0.01,1.98,1.59,3.6,3.58,3.61c1.98,0.01,3.6-1.59,3.61-3.58
				C180.8,463.99,179.2,462.37,177.21,462.36z"/>
		</g>
		<g>
			<path class="st2" d="M177.21,462.36c1.98,0.01,3.59,1.63,3.58,3.61c-0.01,1.98-1.63,3.59-3.61,3.58
				c-1.98-0.01-3.59-1.63-3.58-3.61C173.61,463.95,175.23,462.35,177.21,462.36 M177.22,460.41c-3.06-0.02-5.56,2.46-5.58,5.52
				c-0.02,3.06,2.46,5.56,5.52,5.58c3.06,0.02,5.56-2.46,5.58-5.52C182.76,462.92,180.28,460.42,177.22,460.41L177.22,460.41z"/>
		</g>
	</g>
	<g>
		<g>
			<path class="st1" d="M234.69,506.1c-1.8-0.01-3.27,1.44-3.28,3.25c-0.01,1.8,1.44,3.27,3.25,3.28c1.8,0.01,3.27-1.44,3.28-3.25
				C237.94,507.58,236.49,506.11,234.69,506.1z"/>
		</g>
	</g>
	<g>
		<g>
			<path class="st2" d="M496.81,508.24c0.42-0.58,1.03-1.04,1.83-1.25c-0.17-0.57-0.21-1.19-0.13-1.79
				c-0.93,0.84-1.62,1.92-1.99,3.15C496.61,508.31,496.71,508.27,496.81,508.24z"/>
		</g>
	</g>
	<g>
		<g>
			<path class="st1" d="M558.2,296.48c-3.1-0.02-5.63,2.49-5.65,5.59c-0.02,3.1,2.49,5.63,5.59,5.65c3.1,0.02,5.63-2.49,5.65-5.59
				C563.81,299.02,561.3,296.5,558.2,296.48z"/>
		</g>
		<g>
			<path class="st2" d="M558.2,296.48c3.1,0.02,5.61,2.55,5.59,5.65c-0.02,3.1-2.55,5.61-5.65,5.59c-3.1-0.02-5.61-2.55-5.59-5.65
				C552.56,298.97,555.09,296.46,558.2,296.48 M558.21,294.52c-4.18-0.02-7.6,3.36-7.62,7.54c-0.02,4.18,3.36,7.6,7.54,7.62
				c4.18,0.02,7.6-3.36,7.62-7.54C565.77,297.96,562.39,294.54,558.21,294.52L558.21,294.52z"/>
		</g>
	</g>
	<g>
		<g>
			<path class="st1" d="M271.68,236.78c-2.3-0.01-4.18,1.84-4.19,4.14c-0.01,2.3,1.84,4.18,4.14,4.19c2.3,0.01,4.17-1.84,4.19-4.14
				C275.84,238.67,273.98,236.79,271.68,236.78z"/>
		</g>
		<g>
			<path class="st2" d="M271.68,236.78c2.3,0.01,4.16,1.89,4.14,4.19c-0.01,2.3-1.89,4.16-4.19,4.14c-2.3-0.01-4.16-1.89-4.14-4.19
				C267.5,238.62,269.38,236.77,271.68,236.78 M271.69,234.3c-3.67-0.02-6.66,2.95-6.68,6.62c-0.02,3.67,2.95,6.66,6.62,6.68
				c3.67,0.02,6.66-2.95,6.68-6.62C278.33,237.31,275.36,234.32,271.69,234.3L271.69,234.3z"/>
		</g>
	</g>
	<g>
		
			<rect x="372.61" y="527.3" transform="matrix(0.3757 -0.9267 0.9267 0.3757 -310.9239 712.219)" class="st1" width="1.12" height="119.17"/>
	</g>
	<g>
		
			<rect x="282.39" y="582.97" transform="matrix(0.5547 -0.8321 0.8321 0.5547 -349.5926 513.8365)" class="st1" width="45.74" height="1.12"/>
	</g>
	<g>
		
			<rect x="329.7" y="566.1" transform="matrix(0.4537 -0.8912 0.8912 0.4537 -344.5804 616.1634)" class="st1" width="1.12" height="46.06"/>
	</g>
	<g>
		
			<rect x="372.23" y="580.66" transform="matrix(0.7071 -0.7071 0.7071 0.7071 -309.2321 436.9211)" class="st1" width="1.12" height="22.16"/>
	</g>
	<g>
		
			<rect x="333.8" y="560.46" transform="matrix(0.7234 -0.6905 0.6905 0.7234 -310.1547 392.1962)" class="st1" width="1.12" height="45.39"/>
	</g>
	<g>
		
			<rect x="345.93" y="591.18" transform="matrix(0.69 -0.7238 0.7238 0.69 -317.7173 441.6812)" class="st1" width="21.64" height="1.12"/>
	</g>
	<g>
		
			<rect x="419.2" y="587.07" transform="matrix(0.7358 -0.6772 0.6772 0.7358 -278.7438 460.7323)" class="st1" width="63.9" height="1.12"/>
	</g>
	<g>
		
			<rect x="414.77" y="504.84" transform="matrix(0.9726 -0.2326 0.2326 0.9726 -118.3366 111.8896)" class="st1" width="1.12" height="105.88"/>
	</g>
	<g>
		
			<rect x="346.49" y="455.96" transform="matrix(0.4321 -0.9018 0.9018 0.4321 -285.7463 617.015)" class="st1" width="1.12" height="158.88"/>
	</g>
	<g>
		
			<rect x="297.61" y="499.39" transform="matrix(0.214 -0.9768 0.9768 0.214 -292.6351 715.3257)" class="st1" width="1.12" height="80.21"/>
	</g>
	<g>
		
			<rect x="351.71" y="545.54" transform="matrix(0.7954 -0.606 0.606 0.7954 -270.4992 329.1238)" class="st1" width="1.12" height="39.4"/>
	</g>
	<g>
		<g>
			<path class="st1" d="M364.31,580.33c-1.17-0.01-2.13,0.94-2.14,2.12c-0.01,1.17,0.94,2.13,2.11,2.14
				c1.17,0.01,2.13-0.94,2.14-2.11C366.43,581.3,365.49,580.34,364.31,580.33z"/>
		</g>
	</g>
	<g>
		
			<rect x="379.7" y="518.26" transform="matrix(0.2662 -0.9639 0.9639 0.2662 -259.7087 776.6434)" class="st1" width="1.12" height="81.29"/>
	</g>
	<g>
		<g>
			<path class="st1" d="M337.96,543.41c-2-0.01-3.62,1.6-3.63,3.6c-0.01,2,1.6,3.62,3.6,3.63c2,0.01,3.62-1.6,3.63-3.6
				C341.57,545.05,339.96,543.42,337.96,543.41z"/>
		</g>
	</g>
	<g>
		<g>
			<path class="st1" d="M403.64,501.91c-1.8-0.01-3.27,1.44-3.27,3.24c-0.01,1.8,1.44,3.27,3.24,3.27c1.8,0.01,3.27-1.44,3.27-3.24
				C406.89,503.39,405.44,501.92,403.64,501.91z"/>
		</g>
		<g>
			<path class="st2" d="M403.64,501.91c1.8,0.01,3.25,1.48,3.24,3.27c-0.01,1.8-1.48,3.25-3.27,3.24c-1.8-0.01-3.25-1.48-3.24-3.27
				C400.37,503.35,401.84,501.9,403.64,501.91 M403.65,499.65c-3.05-0.02-5.54,2.45-5.55,5.5c-0.02,3.05,2.45,5.54,5.5,5.55
				c3.05,0.02,5.54-2.45,5.55-5.5C409.16,502.15,406.7,499.66,403.65,499.65L403.65,499.65z"/>
		</g>
	</g>
	<g>
		
			<rect x="422.34" y="534.09" transform="matrix(0.7969 -0.6041 0.6041 0.7969 -228.934 388.3429)" class="st1" width="81.49" height="1.12"/>
	</g>
	<g>
		
			<rect x="425.81" y="566.18" transform="matrix(0.9832 -0.1823 0.1823 0.9832 -95.8373 90.8568)" class="st1" width="40.98" height="1.12"/>
	</g>
	<g>
		
			<rect x="245.37" y="304.65" transform="matrix(0.7316 -0.6817 0.6817 0.7316 -187.5746 267.4932)" class="st1" width="1.12" height="134.64"/>
	</g>
	<g>
		
			<rect x="390.52" y="604.03" transform="matrix(0.9985 -0.054 0.054 0.9985 -32.7788 22.0092)" class="st1" width="1.12" height="27.65"/>
	</g>
	<g>
		
			<rect x="397.76" y="620.65" transform="matrix(0.3033 -0.9529 0.9529 0.3033 -308.8254 820.0465)" class="st1" width="17.23" height="1.12"/>
	</g>
	<g>
		
			<rect x="430.07" y="624.71" transform="matrix(0.9778 -0.2095 0.2095 0.9778 -123.5741 104.3332)" class="st1" width="1.12" height="21.37"/>
	</g>
	<g>
		
			<rect x="353.88" y="629.24" transform="matrix(0.5261 -0.8504 0.8504 0.5261 -363.522 607.2447)" class="st1" width="18.43" height="1.12"/>
	</g>
	<g>
		
			<rect x="371.08" y="660.58" transform="matrix(0.7245 -0.6893 0.6893 0.7245 -347.6549 452.4749)" class="st1" width="42.23" height="1.12"/>
	</g>
	<g>
		
			<rect x="352.09" y="639.12" transform="matrix(0.9996 -0.0286 0.0286 0.9996 -18.4823 10.3375)" class="st1" width="1.12" height="26.13"/>
	</g>
	<g>
		
			<rect x="495.57" y="544.16" transform="matrix(0.9322 -0.362 0.362 0.9322 -162.1028 224.1457)" class="st1" width="43.24" height="1.12"/>
	</g>
</g>
</svg>
