<?xml version="1.0" encoding="utf-8"?>
<!-- Generator: Adobe Illustrator 18.0.0, SVG Export Plug-In . SVG Version: 6.00 Build 0)  -->
<!DOCTYPE svg PUBLIC "-//W3C//DTD SVG 1.1//EN" "http://www.w3.org/Graphics/SVG/1.1/DTD/svg11.dtd">
<svg xmlns="http://www.w3.org/2000/svg" xmlns:xlink="http://www.w3.org/1999/xlink" version="1.1" id="Слой_2" x="0px" y="0px" viewBox="0 316 1590 664" enable-background="new 0 316 1590 664" xml:space="preserve">
<path fill="#4BB7EE" stroke="" stroke-width="2" stroke-miterlimit="10" d="M1584.4,538.3c-7.4-14.4-36.3-65.1-120.7-102.3  s-245.8-75-380.3-74.5s-168.3,4-192.7,9.4c-15.4,3.4-27.2,6.5-33.8,8.3c-10.5-12.6-24.9-28.8-35.9-36.4c-0.1-0.3-0.1-0.4-0.3-0.7  c-5.4-9.4-11.4-16.8-17.9-14.8c-4,1.2-6.9,1.9-8.6,2.3c-1.7-0.3-4.8-0.9-8.6-2.3c-6.5-2-12.5,5.4-17.9,14.8  c-0.1,0.1-0.1,0.4-0.3,0.7c-11,7.7-25.4,23.9-35.9,36.4c-6.6-1.7-18.4-4.9-33.8-8.3c-24.4-5.4-58-8.9-192.7-9.4  S209.4,398.7,124.9,436S11.7,523.8,4.2,538.3s14.4,36.7,21.3,48.6c6.9,11.9,15.9,10.5,15.9,10.5s13.9,15.9,25.3,21.9  s11.9,4.5,11.9,4.5s21.9,8.5,30.3,11.9s14.4-3.4,14.4-3.4s3.4,3.4,16.4,6.5s50.1,8.9,51.7,13.4S212,662,222.3,668  c10.5,6,33.3,16.4,43.7,21.3c10.5,4.9,66.5,41.7,86.4,52.6c19.9,10.9,37.8,8.5,37.8,8.5s2,41.7,6.5,63.1  c4.5,21.3,25.3,37.8,25.3,37.8s13.4,25.3,17.4,30.7c4,5.4,7.4,14.8,19.3,26.4c11.9,11.4,30.7,16.4,30.7,16.4s21.3,23.3,48.6,28.8  c27.3,5.4,30.7-0.5,30.7-0.5s31.8,9.9,52.6,11.9c20.8,2,45.7-8.5,45.7-8.5s28.4,0.9,43.2-4.9c14.8-5.8,19.3-14.4,19.3-14.4  s9.4-3.4,15.9-7.4c6.5-4,11.4-11.4,11.4-11.4s0.9,2.9,11.9-2.5c8.7-4.4,21.1-17.8,25.6-22.8c4.5,5,16.8,18.4,25.6,22.8  c10.9,5.4,11.9,2.5,11.9,2.5s4.9,7.4,11.4,11.4c6.5,4,15.9,7.4,15.9,7.4s4.5,8.5,19.3,14.4c14.8,6,43.2,4.9,43.2,4.9  s24.8,10.5,45.7,8.5c20.8-2,52.6-11.9,52.6-11.9s3.4,6,30.7,0.5c27.3-5.4,48.6-28.8,48.6-28.8s18.8-4.9,30.7-16.4  c11.9-11.4,15.4-20.8,19.3-26.4c4-5.4,17.4-30.7,17.4-30.7s20.8-16.4,25.3-37.8c4.5-21.3,6.5-63.1,6.5-63.1s17.9,2.5,37.8-8.5  s75.9-47.7,86.4-52.6s33.3-15.4,43.7-21.3c10.5-6,29.3-11.4,30.7-15.9s38.7-10.5,51.7-13.4c12.9-2.9,16.4-6.5,16.4-6.5  s6,6.9,14.4,3.4c8.5-3.4,30.3-11.9,30.3-11.9s0.5,1.5,11.9-4.5c11.4-6,25.3-21.9,25.3-21.9s8.9,1.5,15.9-10.5  C1570.1,575,1592,552.6,1584.4,538.3z M906.3,404.4c16.4-3.7,25.3-1.5,54.3-3.7c29-2.3,126.7-0.8,152,4.5  c25.3,5.2,46.1,13.4,68.5,28.2c22.4,14.8,29.8,26.8,26.1,29.1c-3.7,2.4-18.7,10.3-47.7,9.5c-29-0.8-103.5-13.4-133.3-19.3  S892.9,413.3,890.7,415C890.7,415,890,408.1,906.3,404.4z M822.7,348.4c8.7,7.3,20.4,18.4,29.5,32.1c-0.8,0.3-1.1,0.3-1.1,0.3  s-6,0-14.4-2.5s-14.8-6-14.8-6l-4-7.4C817.9,364.9,823.2,356.6,822.7,348.4z M766,348.4c-0.5,8.2,4.8,16.6,4.8,16.6l-4,7.4  c0,0-6.5,3.4-14.8,6c-8.5,2.5-14.4,2.5-14.4,2.5s-0.4-0.1-1.1-0.3C745.6,366.8,757.4,355.7,766,348.4z M384.2,446  c6.8-2.9,26.1-30.5,39.5-36.4c13.4-6,81.9-12.7,112.5-13.4c30.5-0.8,139.3-5.2,169.1,0l17.9,9.7c0,0-177.9,39.5-197.4,42.4  c-19.3,2.9-88.6,12.7-107.2,14.2C400,463.9,377.5,449.1,384.2,446z M261.4,561.6c1.5-5.2,19.3-41.7,28.4-50.6  c9-8.9,50-29.8,63.3-33.5c13.4-3.7,28.4,4.5,44.7,4.5v2.9c0,0-52.1,38.7-67.7,48.4s-39.5,20.1-46.9,22.4  C275.5,557.9,259.8,566.7,261.4,561.6z M341.9,619.6c-39.5,25.3-29.8-22.4-24.5-38.7c5.2-16.4,52.1-44.7,71.5-61.1  c0,0,20.1-18.5,46.9-31.3c26.8-12.7,57.4-6.8,57.4-6.8s-36.4,36.4-56.6,54.3C416.3,554,381.3,594.3,341.9,619.6z M405.5,676.2  c-26.5,20.8-41.3-8.2-43.6-25.3c-2.3-17.1,61.1-67,87.2-87.7c0,0,57.4-61.2,84.1-82.7c26.8-21.5,143-53,167.6-61.2  c24.6-8.2,23.1-3.7,10.5,5.2c-12.7,8.9-78.2,70-107.2,89.4c-29,19.3-96.1,70.8-118.5,87.2C463.2,617.4,432,655.4,405.5,676.2z   M468.4,782.7c-2.3-7.4,3.7-18.7-3.7-19.3c-7.4-0.7-11.9-8.9-6-27.6c6-18.7,32.7-34.3,57.4-63.3c24.6-29,63.5-59.6,63.5-59.6  s3.6-1.5,5,13.9c1.5,15.4-5.2,20.3-19.3,39.6c-14.2,19.3-35.8,49.2-49.2,65.6c0,0-13.4,18.7-27.6,38.7  C474.4,790.9,470.6,790.1,468.4,782.7z M499.7,849c-14.2-2.3-28.4-20.1-28.4-20.1s5.2-13.4,11.9-28.4c6.8-14.8,44-64,57.6-79  c0,0,22.9-36.2,26.1-41.9c0.1-0.3,0.1-0.5,0.3-0.7c0.3-0.3,0.1,0-0.3,0.7c-1.7,4.9,1.1,29.2,0.3,41.9c-0.8,13.4-5.2,26.8-14.4,37.2  c-9.1,10.5-24.4,76.7-28.1,90.1C521.3,862.4,513.8,851.2,499.7,849z M592,870.6c-10.5-1.5-23.1-4.5-39-4.5  c-15.9,0-17.6-6.8-16.2-15.6c1.5-8.9,12.7-44.7,34.3-83.2c21.6-38.6,31.3-23.3,32.1-18c0.8,5.2-2.9,29.8-5.2,51.4  c0,0,0.8,13.4,2.3,32.7s7.4,37.2,7.4,37.2S602.5,872.2,592,870.6z M590.6,726.1c-13.4,5.2-11.1-13.4-10.5-38.7  c0.8-25.3,14.2-51.4,19.3-64c5.2-12.7-8.2-29-8.2-29s11.9-7.4,22.4-12.7c10.5-5.2,52.1-42.4,70-61.9c0,0,3.7-2.1,13.4-15.6  c9.7-13.4,14.2-19.3,26.1-19.3s-14.8,50.6-24.5,68.9c-9.7,18.2-35.8,87.6-51.4,112.1C631.5,690.4,603.9,721,590.6,726.1z   M675.5,866.2c-10.5-1.5-26.1,8.3-26.1,8.3s-10.5-0.1-18.7-0.1c-8.2,0-13.4,2.3-13.4-10.5c0-12.7-2.3-57.4,0-81.9  c0,0-2.9-26.1-0.9-40.1c2-14,7.7-16.4,27-47c19.3-30.5,17.9-20.8,20.1-11.4c2.3,9.5,2.9,28.5,0,55.3c-2.9,26.8,6.8,79.6,11.9,106.5  C680.7,872.2,685.8,867.7,675.5,866.2z M736.6,850.6c-7.4,2.9-15.6,6.8-19.3,5s-19.3-5.7-19.3-5.7s-6-2.3-11.9-29.8  c-6-27.6-4.5-74.5-1.5-93c2.9-18.6-4.5-57.5-2.9-76.9s7.4-37.2,16.3-55.9c0,0,13.4-39.5,22.4-65.6c9-26.1,16.4-35.8,22.3-27.6  c6,8.2-0.8,29,1.5,40.9s0.8,69.3-0.8,90.9c-1.5,21.6,4.5,198.1,7.4,207.8S744,847.5,736.6,850.6z M823.9,622.3  c1.3,5.4,2.4,10.3,2.8,16c0.4,6,0.1,12.2-0.9,17.9c-0.5,2.9-2.1,5.7-2.3,8.7c-0.1,2.3,0.4,4.9,0.9,7.7c0.9,5.2,0,10.6,0,16.3  c0,3.2-0.5,6-0.8,9c-0.3,3,0.1,3.6,1.5,6.6c2.3,5.3,1.6,11.4,0.7,17.1c-0.9,6.4,0.9,11.7,0.8,17.9c-0.1,6-2.5,11.8-3.7,17.1  c-1.2,5.3,1.7,9.9,0.8,15.6c-1.9,11.4-1.3,21.9-6.5,32.2c-2.5,5-6.2,9.9-7.7,15.4c-1.5,5.4-2.1,11.3-4.6,16.3  c-2.4-0.4-2.8-1.2-4.9-1.2c-2.1,0-4.1,1.6-6.8,1.2c0-0.7,0.1-2.3-0.3-2.9c-5.4-8.5-10.7-20.3-13.2-29.8c-3-11.3-9.4-22.1-7.4-34.3  c0.1-1.2,1.9-3.2,1.6-4.5c-0.3-1.1-1.9-1.5-2.1-2.4c-0.8-2.5-0.9-5-0.9-7.9c0-5.8,2.3-12.7,0.5-18.4c-0.5-2-3.2-3.7-3.6-6.1  c-0.5-2.8-0.5-6.2-0.7-9c-0.5-6.6,3-11.9,2.3-17.9c-0.8-5.3-3-11.1-3.6-16.6c-0.3-3.3,0.5-6.4,1.2-9.5c0.5-2.8,2.5-4.9,3-7.4  c1.1-5.2-2.9-12.9-3.6-17.9c-0.9-6.1-0.9-11.8-1.5-17.9c-0.4-4.6,0.7-12.7-0.1-17c-1.1-5.4-5.7-10.1-6.5-15.9  c-0.7-5.3,0.1-11.9,0-17.9c-0.1-6.4-3.3-12.3-3.2-18.5c-0.1,0.3-1.1,1.2-1.2,1.3c0.3-5.8-0.9-12.3-0.9-18.6c0-5.6,1.9-13.5,0.5-18.5  c-0.7,0.9-1.7,1.5-2.3,2.8c-1.6-3.2,9.9-17.5,4.6-19.6c2.9-2.8,2.3-9.7,2.4-13.5c-0.7,0.8-1.6,1.6-2.1,2.5c0.8-3.3,4.2-7.8,4.2-10.9  c-6-0.5-8.1,9-11.7,11.8c0.1-4.5-1.3-8.7-0.9-13.4c0.3-3.4,2.3-7.8,1.5-11.1c-2.9,1.5-6,6.5-9.5,5.8c1.1-3,3.7-9.4,3.4-12.5  c-0.9,0.7-2.4,0.9-3.3,1.5c1.2-2.3,2.1-5.6,1.9-8.1c-3-0.4-5.8,2.7-8.7,3.6c0.9-2.8,3.2-5.4,3.6-8.1c-5.7,4-12.3,15-20.4,14.8  c8.2-7.6,15.2-16.8,20-26.6c2-4.2,4.8-8.1,7-12.1c2.8-4.6,5.8-13.2,6.1-18.5c-3.3,1.7-7,4-10.3,5.8c1.1-1.9,2.8-3.3,2.1-5.8  c-3.6,0.1-6.8,3.4-10.2,3.4c0.9-2.4,1.3-4.8,2.9-7.2c1.2-1.9,3.3-3.2,3.6-5.3c-2.1,1.1-3.6,3.4-5.7,4.4c-0.1-4.4,2.5-8,4.2-11.8  c-0.9,0.7-2.4,0.8-3.4,1.3c-0.7-3,2.8-5,4.2-7.3c-3,1.1-6.1,3.3-9.4,3.7c6.2-5.2,11.8-13.6,21.3-11.9l6.8-2.9  c4.6-5.3,18-7.8,24.6-8.9c9.7-1.6,18.5-1.7,28.4,0.9c7.7,2.1,19.9,2.9,25.8,8.9c2.5,2.5,4.2,6.5,6.2,9.4c1.9,2.8,6,6.6,6.5,9.7  c-3.6,0.4-5.4-3.6-8.7-3.4c0.7,1.6,1.3,3.3,2.1,4.8c0.1-0.3,0.3-0.4,0.5-0.3c1.3,8.5,6,17.6,10.3,25.2c-4.1-1.7-9.1-4.5-10.9-8.7  c2.3,4.8,3.3,11.9,6.6,17c2.8,4.2,6.9,8.3,9.8,12.5c-3.2-0.5-6.5-2-8.9-4.1c0.1,4.8,3.6,9.1,7.3,12.6c1.2,0.9,2.4,1.9,3.4,3  c-1.1-0.9-2.4-1.9-3.4-3c-2-1.5-4.1-2.6-6.1-4.4c-2.9-2.6-5.8-6-8.6-8.2c2.9,8.3,11,19.3,9.4,28.9c-1.6-1.1-6-7.6-6-9.5  c-2,3.2-0.1,10.2,0.1,14c0.4,5.4,1.5,10.7,1.6,16.2c-2.9-5.2-4.8-10.3-6-15.9c0,7.4,1.2,15.2,0.7,22.8c-2.9-1.3-4.1-5.3-5.8-7.8  c0.1,6-0.7,11.5-0.7,17.4c-1.2-4-3.8-8.2-4.5-12.2c-1.2,2.5-2,9.3-1.5,12.2c-0.7-1.9-1.3-3.6-1.6-5.4c-0.1,8.6-0.8,17.6,0.9,25.8  c1.6,7.8,5,16,8.6,23.1c-1.5-1.3-2.7-3.7-4.4-5.2c-1.6-1.3-4.1-2.5-5.8-3.6c2.8,6.6,5.6,19.2,4.4,26.5c-1.3-2.7-4.5-5.6-4.5-8.5  c-1.1,5.8,2.4,13.2,3.7,18.8c-0.5-0.3-1.6-0.9-2.1-1.3c-0.7-2.5-2.1-4.6-2.4-7.2c-0.8,5.3,1.6,11.7,2.4,16.7  c0.8,5.2,0.1,10.7-1.6,15.8C823.1,613.8,822.3,616,823.9,622.3z M865.4,849c-12.7,0-12.7,12.7-18.7,6.5c-6-6.2-14.2-5-17.1-10.2  c-2.9-5.2,2.9-36.4,4.5-52.1c1.5-15.6,5.2-86.4,8.2-126.7s2.9-104.3,0-119.1c0,0-0.8-12.7,2.3-27.6s6.8-11.1,6.8-11.1  s19.3,37.2,26.8,54.5c7.4,17.2,18.7,73.7,22.4,99.6c3.7,26-4.5,23.9-3.7,64.1c0.8,40.4-11.1,110.1-12.7,118.3  C882.5,853.5,878.1,849,865.4,849z M962.2,794.6c2.3,27.6,0.8,58.8,0,84.1c-0.8,25.3-7.4,4.5-14.8,2.3c-7.4-2.3-20.8,4.5-31.3,0  c-10.5-4.5-22.4-9.8-22.4-9.8s0.8-11.1,7.7-27.4c6.9-16.4,13.1-64.8,14.7-96.1c0,0-1.5-20.1,0-44c1.5-23.8,5.2-26.1,10.5-21.1  c5.2,5,19.3,26.2,32.7,46.8C972.7,750,960,767.1,962.2,794.6z M927.2,653.9c-14.2-20.1-53.7-128.1-62.1-145.6c0,0-4.1-10.7-4.9-16.7  c-0.8-6,8.2-2.9,22.4,6.9c14.2,9.8,23.1,20.7,40.9,49c17.9,28.4,46.9,40.3,55.9,46.9c8.9,6.8,6,17.9,2.3,24.5s8.2,22.4,15.6,40.9  c7.4,18.7,7.4,45.4,6,59.6c-1.5,14.2-14.2,12.7-29,0C959.2,706.8,941.3,673.9,927.2,653.9z M1033.6,871.2c-7.4-3-20.1,4.5-32.7,3.2  c-12.7-1.3-25.3-0.1-23.1-3.2s2.3-63.2,0-83.7c0,0,0.8-13-0.3-20.3c-1.1-7.3,4.8-18.8,9.1-17.4c4.5,1.5,9.7,4.5,17.2,20.1  c7.6,15.6,31.9,65.6,37.2,79.6C1046.4,863.9,1041.2,874.3,1033.6,871.2z M1105.2,838.6c-1.5,5.2-8.9,11.9-26.1,18.5  s-16.4,4.5-23.1-6.8c-6.8-11.1-21.6-66.2-33.5-88.6c0,0-4.5-11.1-8.9-24.5c-4.5-13.4,0-53.8,0-53.8s17.1,26.2,25.3,38.2  c8.2,11.9,38.7,54.3,50,75.9C1100,819.2,1106.6,833.3,1105.2,838.6z M1114.1,774.4c-0.8,7.3-0.8,20.3-8.7,25.6  c-7.9,5.3-11.4-17.1-17.4-27.7c-6-10.6-31.3-47.6-40.3-64c0,0-7.4-7.4-17.1-16.4c-9.7-8.9-20.1-31.3-26.8-50.6  c-6.6-19.3,0.7-21.6,7.7-22.4c7-0.8,20.7,13.4,28.1,27c7.4,13.6,40.3,37,52.9,54.3c12.7,17.2,32.7,47.6,34.3,58.7  C1128.2,770.1,1114.9,767.1,1114.1,774.4z M1210.9,688.9c-17.1,11.9-34.3-0.8-49.2-11.8s-48.4-48.6-78.2-82.8  c-29.8-34.3-67.7-51.4-89.4-65.6c-21.6-14.2-80.4-76.7-92.9-90.9c0,0,2.8-6.8,10.2-3.7c7.4,2.9,47.7,16.4,69.3,25.3  c21.6,8.9,67.7,19.3,77.6,32.7c9.9,13.4,54.9,47.7,68.4,70.9c13.5,23.2,90.8,85.6,96.7,95.9C1229.5,669.3,1228,677,1210.9,688.9z   M1253.5,639c-20.1,3.7-26.1-17.1-45.3-38.7s-109.7-108-111.8-111.8c0,0,14.8,1.6,20.8,0s25.3,5.3,35,6.8  c9.7,1.5,11.1,4.5,26.8,16.4s35,35.8,47.8,48.4c12.9,12.7,50.5,45.4,51.9,58.8C1280.2,632.2,1273.5,635.2,1253.5,639z M1322.6,585.4  c-10.5-9.7-14.8-4.5-29.8-8.2c-14.8-3.7-28.4-17.9-46.1-29.8c0,0-29-22.4-38.6-33.5c-9.5-11.1-21.7-19.3-12.1-20.1  c9.7-0.8,33.5-2.3,46.1,0c12.7,2.3,20.1,8.2,45.2,26s32.3,41.7,35.2,46.6C1325.5,571.2,1333.1,595.1,1322.6,585.4z"/>
</svg>
